M48
; DRILL file {KiCad 7.0.8} date Sun Feb 11 12:05:53 2024
; FORMAT={-:-/ absolute / inch / decimal}
; #@! TF.CreationDate,2024-02-11T12:05:53+00:00
; #@! TF.GenerationSoftware,Kicad,Pcbnew,7.0.8
; #@! TF.FileFunction,Plated,1,2,PTH
FMAT,2
INCH
; #@! TA.AperFunction,Plated,PTH,ViaDrill
T1C0.0118
; #@! TA.AperFunction,Plated,PTH,ViaDrill
T2C0.0157
; #@! TA.AperFunction,Plated,PTH,ComponentDrill
T3C0.0197
%
G90
G05
T1
X3.2282Y-2.5377
X3.2282Y-3.5141
X3.2282Y-4.4905
X3.2282Y-5.4668
X3.2539Y-2.7641
X3.2539Y-3.7405
X3.2539Y-4.7168
X3.2539Y-5.6932
X3.2557Y-2.5362
X3.2557Y-3.5126
X3.2557Y-4.489
X3.2557Y-5.4654
X3.3054Y-2.6599
X3.3054Y-3.6363
X3.3054Y-4.6127
X3.3054Y-5.589
X3.311Y-2.8448
X3.311Y-3.8212
X3.311Y-4.7975
X3.311Y-5.7739
X3.3329Y-2.6594
X3.3329Y-3.6358
X3.3329Y-4.6121
X3.3329Y-5.5885
X3.3504Y-2.4708
X3.3504Y-3.4471
X3.3504Y-4.4235
X3.3504Y-5.3999
X3.4094Y-2.8448
X3.4094Y-3.8212
X3.4094Y-4.7975
X3.4094Y-5.7739
X3.4213Y-2.5362
X3.4213Y-3.5126
X3.4213Y-4.489
X3.4213Y-5.4654
X3.4449Y-2.7582
X3.4449Y-3.7345
X3.4449Y-4.7109
X3.4449Y-5.6873
X3.4606Y-2.5889
X3.4606Y-3.5653
X3.4606Y-4.5416
X3.4606Y-5.518
X3.5Y-2.5849
X3.5Y-3.5613
X3.5Y-4.5377
X3.5Y-5.5141
X3.563Y-2.7345
X3.563Y-3.7109
X3.563Y-4.6873
X3.563Y-5.6637
X3.7833Y-2.5377
X3.7833Y-3.5141
X3.7833Y-4.4905
X3.7833Y-5.4668
X3.8091Y-2.7641
X3.8091Y-3.7405
X3.8091Y-4.7168
X3.8091Y-5.6932
X3.8108Y-2.5362
X3.8108Y-3.5126
X3.8108Y-4.489
X3.8108Y-5.4654
X3.8605Y-2.6599
X3.8605Y-3.6363
X3.8605Y-4.6127
X3.8605Y-5.589
X3.8661Y-2.8448
X3.8661Y-3.8212
X3.8661Y-4.7975
X3.8661Y-5.7739
X3.8881Y-2.6594
X3.8881Y-3.6358
X3.8881Y-4.6121
X3.8881Y-5.5885
X3.9055Y-2.4708
X3.9055Y-3.4471
X3.9055Y-4.4235
X3.9055Y-5.3999
X3.9646Y-2.8448
X3.9646Y-3.8212
X3.9646Y-4.7975
X3.9646Y-5.7739
X3.9764Y-2.5362
X3.9764Y-3.5126
X3.9764Y-4.489
X3.9764Y-5.4654
X4.0Y-2.7582
X4.0Y-3.7345
X4.0Y-4.7109
X4.0Y-5.6873
X4.0157Y-2.5889
X4.0157Y-3.5653
X4.0157Y-4.5416
X4.0157Y-5.518
X4.0551Y-2.5849
X4.0551Y-3.5613
X4.0551Y-4.5377
X4.0551Y-5.5141
X4.1181Y-2.7345
X4.1181Y-3.7109
X4.1181Y-4.6873
X4.1181Y-5.6637
X4.3385Y-2.5377
X4.3385Y-3.5141
X4.3385Y-4.4905
X4.3385Y-5.4668
X4.3642Y-2.7641
X4.3642Y-3.7405
X4.3642Y-4.7168
X4.3642Y-5.6932
X4.366Y-2.5362
X4.366Y-3.5126
X4.366Y-4.489
X4.366Y-5.4654
X4.4156Y-2.6599
X4.4156Y-3.6363
X4.4156Y-4.6127
X4.4156Y-5.589
X4.4213Y-2.8448
X4.4213Y-3.8212
X4.4213Y-4.7975
X4.4213Y-5.7739
X4.4432Y-2.6594
X4.4432Y-3.6358
X4.4432Y-4.6121
X4.4432Y-5.5885
X4.4606Y-2.4708
X4.4606Y-3.4471
X4.4606Y-4.4235
X4.4606Y-5.3999
X4.5197Y-2.8448
X4.5197Y-3.8212
X4.5197Y-4.7975
X4.5197Y-5.7739
X4.5315Y-2.5362
X4.5315Y-3.5126
X4.5315Y-4.489
X4.5315Y-5.4654
X4.5551Y-2.7582
X4.5551Y-3.7345
X4.5551Y-4.7109
X4.5551Y-5.6873
X4.5709Y-2.5889
X4.5709Y-3.5653
X4.5709Y-4.5416
X4.5709Y-5.518
X4.6102Y-2.5849
X4.6102Y-3.5613
X4.6102Y-4.5377
X4.6102Y-5.5141
X4.6732Y-2.7345
X4.6732Y-3.7109
X4.6732Y-4.6873
X4.6732Y-5.6637
X4.8936Y-2.5377
X4.8936Y-3.5141
X4.8936Y-4.4905
X4.8936Y-5.4668
X4.9193Y-2.7641
X4.9193Y-3.7405
X4.9193Y-4.7168
X4.9193Y-5.6932
X4.9211Y-2.5362
X4.9211Y-3.5126
X4.9211Y-4.489
X4.9211Y-5.4654
X4.9708Y-2.6599
X4.9708Y-3.6363
X4.9708Y-4.6127
X4.9708Y-5.589
X4.9764Y-2.8448
X4.9764Y-3.8212
X4.9764Y-4.7975
X4.9764Y-5.7739
X4.9983Y-2.6594
X4.9983Y-3.6358
X4.9983Y-4.6121
X4.9983Y-5.5885
X5.0157Y-2.4708
X5.0157Y-3.4471
X5.0157Y-4.4235
X5.0157Y-5.3999
X5.0748Y-2.8448
X5.0748Y-3.8212
X5.0748Y-4.7975
X5.0748Y-5.7739
X5.0866Y-2.5362
X5.0866Y-3.5126
X5.0866Y-4.489
X5.0866Y-5.4654
X5.1102Y-2.7582
X5.1102Y-3.7345
X5.1102Y-4.7109
X5.1102Y-5.6873
X5.126Y-2.5889
X5.126Y-3.5653
X5.126Y-4.5416
X5.126Y-5.518
X5.1654Y-2.5849
X5.1654Y-3.5613
X5.1654Y-4.5377
X5.1654Y-5.5141
X5.2283Y-2.7345
X5.2283Y-3.7109
X5.2283Y-4.6873
X5.2283Y-5.6637
X5.4487Y-2.5377
X5.4487Y-3.5141
X5.4487Y-4.4905
X5.4487Y-5.4668
X5.4744Y-2.7641
X5.4744Y-3.7405
X5.4744Y-4.7168
X5.4744Y-5.6932
X5.4762Y-2.5362
X5.4762Y-3.5126
X5.4762Y-4.489
X5.4762Y-5.4654
X5.5259Y-2.6599
X5.5259Y-3.6363
X5.5259Y-4.6127
X5.5259Y-5.589
X5.5315Y-2.8448
X5.5315Y-3.8212
X5.5315Y-4.7975
X5.5315Y-5.7739
X5.5534Y-2.6594
X5.5534Y-3.6358
X5.5534Y-4.6121
X5.5534Y-5.5885
X5.5709Y-2.4708
X5.5709Y-3.4471
X5.5709Y-4.4235
X5.5709Y-5.3999
X5.6299Y-2.8448
X5.6299Y-3.8212
X5.6299Y-4.7975
X5.6299Y-5.7739
X5.6417Y-2.5362
X5.6417Y-3.5126
X5.6417Y-4.489
X5.6417Y-5.4654
X5.6654Y-2.7582
X5.6654Y-3.7345
X5.6654Y-4.7109
X5.6654Y-5.6873
X5.6811Y-2.5889
X5.6811Y-3.5653
X5.6811Y-4.5416
X5.6811Y-5.518
X5.7205Y-2.5849
X5.7205Y-3.5613
X5.7205Y-4.5377
X5.7205Y-5.5141
X5.7835Y-2.7345
X5.7835Y-3.7109
X5.7835Y-4.6873
X5.7835Y-5.6637
X6.0038Y-2.5377
X6.0038Y-3.5141
X6.0038Y-4.4905
X6.0038Y-5.4668
X6.0295Y-2.7641
X6.0295Y-3.7405
X6.0295Y-4.7168
X6.0295Y-5.6932
X6.0313Y-2.5362
X6.0313Y-3.5126
X6.0313Y-4.489
X6.0313Y-5.4654
X6.081Y-2.6599
X6.081Y-3.6363
X6.081Y-4.6127
X6.081Y-5.589
X6.0866Y-2.8448
X6.0866Y-3.8212
X6.0866Y-4.7975
X6.0866Y-5.7739
X6.1085Y-2.6594
X6.1085Y-3.6358
X6.1085Y-4.6121
X6.1085Y-5.5885
X6.126Y-2.4708
X6.126Y-3.4471
X6.126Y-4.4235
X6.126Y-5.3999
X6.185Y-2.8448
X6.185Y-3.8212
X6.185Y-4.7975
X6.185Y-5.7739
X6.1969Y-2.5362
X6.1969Y-3.5126
X6.1969Y-4.489
X6.1969Y-5.4654
X6.2205Y-2.7582
X6.2205Y-3.7345
X6.2205Y-4.7109
X6.2205Y-5.6873
X6.2362Y-2.5889
X6.2362Y-3.5653
X6.2362Y-4.5416
X6.2362Y-5.518
X6.2756Y-2.5849
X6.2756Y-3.5613
X6.2756Y-4.5377
X6.2756Y-5.5141
X6.3386Y-2.7345
X6.3386Y-3.7109
X6.3386Y-4.6873
X6.3386Y-5.6637
T2
X3.2087Y-2.8251
X3.2087Y-3.8015
X3.2087Y-4.7779
X3.2087Y-5.7542
X3.7638Y-2.8251
X3.7638Y-3.8015
X3.7638Y-4.7779
X3.7638Y-5.7542
X4.3189Y-2.8251
X4.3189Y-3.8015
X4.3189Y-4.7779
X4.3189Y-5.7542
X4.874Y-2.8251
X4.874Y-3.8015
X4.874Y-4.7779
X4.874Y-5.7542
X5.4291Y-2.8251
X5.4291Y-3.8015
X5.4291Y-4.7779
X5.4291Y-5.7542
X5.9843Y-2.8251
X5.9843Y-3.8015
X5.9843Y-4.7779
X5.9843Y-5.7542
T3
X3.1969Y-2.6164
X3.1969Y-2.6558
X3.1969Y-3.5928
X3.1969Y-3.6322
X3.1969Y-4.5692
X3.1969Y-4.6086
X3.1969Y-5.5456
X3.1969Y-5.5849
X3.752Y-2.6164
X3.752Y-2.6558
X3.752Y-3.5928
X3.752Y-3.6322
X3.752Y-4.5692
X3.752Y-4.6086
X3.752Y-5.5456
X3.752Y-5.5849
X4.3071Y-2.6164
X4.3071Y-2.6558
X4.3071Y-3.5928
X4.3071Y-3.6322
X4.3071Y-4.5692
X4.3071Y-4.6086
X4.3071Y-5.5456
X4.3071Y-5.5849
X4.8622Y-2.6164
X4.8622Y-2.6558
X4.8622Y-3.5928
X4.8622Y-3.6322
X4.8622Y-4.5692
X4.8622Y-4.6086
X4.8622Y-5.5456
X4.8622Y-5.5849
X5.4173Y-2.6164
X5.4173Y-2.6558
X5.4173Y-3.5928
X5.4173Y-3.6322
X5.4173Y-4.5692
X5.4173Y-4.6086
X5.4173Y-5.5456
X5.4173Y-5.5849
X5.9724Y-2.6164
X5.9724Y-2.6558
X5.9724Y-3.5928
X5.9724Y-3.6322
X5.9724Y-4.5692
X5.9724Y-4.6086
X5.9724Y-5.5456
X5.9724Y-5.5849
T0
M30
