M48
; DRILL file {KiCad 7.0.8} date Sun Feb 11 12:05:53 2024
; FORMAT={-:-/ absolute / inch / decimal}
; #@! TF.CreationDate,2024-02-11T12:05:53+00:00
; #@! TF.GenerationSoftware,Kicad,Pcbnew,7.0.8
; #@! TF.FileFunction,NonPlated,1,2,NPTH
FMAT,2
INCH
; #@! TA.AperFunction,NonPlated,NPTH,ComponentDrill
T1C0.0197
%
G90
G05
T1
X3.0531Y-2.7894
X3.0531Y-2.8189
X3.0531Y-2.8484
X3.0531Y-3.7657
X3.0531Y-3.7953
X3.0531Y-3.8248
X3.0531Y-4.7421
X3.0531Y-4.7717
X3.0531Y-4.8012
X3.0531Y-5.7185
X3.0531Y-5.748
X3.0531Y-5.7776
X3.1122Y-2.7894
X3.1122Y-2.8189
X3.1122Y-2.8484
X3.1122Y-3.7657
X3.1122Y-3.7953
X3.1122Y-3.8248
X3.1122Y-4.7421
X3.1122Y-4.7717
X3.1122Y-4.8012
X3.1122Y-5.7185
X3.1122Y-5.748
X3.1122Y-5.7776
X3.3307Y-3.2247
X3.3307Y-3.2838
X3.3307Y-4.2011
X3.3307Y-4.2601
X3.3307Y-5.1775
X3.3307Y-5.2365
X3.3602Y-3.2247
X3.3602Y-3.2838
X3.3602Y-4.2011
X3.3602Y-4.2601
X3.3602Y-5.1775
X3.3602Y-5.2365
X3.3898Y-3.2247
X3.3898Y-3.2838
X3.3898Y-4.2011
X3.3898Y-4.2601
X3.3898Y-5.1775
X3.3898Y-5.2365
X3.6083Y-2.7894
X3.6083Y-2.8189
X3.6083Y-2.8484
X3.6083Y-3.7657
X3.6083Y-3.7953
X3.6083Y-3.8248
X3.6083Y-4.7421
X3.6083Y-4.7717
X3.6083Y-4.8012
X3.6083Y-5.7185
X3.6083Y-5.748
X3.6083Y-5.7776
X3.6673Y-2.7894
X3.6673Y-2.8189
X3.6673Y-2.8484
X3.6673Y-3.7657
X3.6673Y-3.7953
X3.6673Y-3.8248
X3.6673Y-4.7421
X3.6673Y-4.7717
X3.6673Y-4.8012
X3.6673Y-5.7185
X3.6673Y-5.748
X3.6673Y-5.7776
X3.8858Y-3.2247
X3.8858Y-3.2838
X3.8858Y-4.2011
X3.8858Y-4.2601
X3.8858Y-5.1775
X3.8858Y-5.2365
X3.9154Y-3.2247
X3.9154Y-3.2838
X3.9154Y-4.2011
X3.9154Y-4.2601
X3.9154Y-5.1775
X3.9154Y-5.2365
X3.9449Y-3.2247
X3.9449Y-3.2838
X3.9449Y-4.2011
X3.9449Y-4.2601
X3.9449Y-5.1775
X3.9449Y-5.2365
X4.1634Y-2.7894
X4.1634Y-2.8189
X4.1634Y-2.8484
X4.1634Y-3.7657
X4.1634Y-3.7953
X4.1634Y-3.8248
X4.1634Y-4.7421
X4.1634Y-4.7717
X4.1634Y-4.8012
X4.1634Y-5.7185
X4.1634Y-5.748
X4.1634Y-5.7776
X4.2224Y-2.7894
X4.2224Y-2.8189
X4.2224Y-2.8484
X4.2224Y-3.7657
X4.2224Y-3.7953
X4.2224Y-3.8248
X4.2224Y-4.7421
X4.2224Y-4.7717
X4.2224Y-4.8012
X4.2224Y-5.7185
X4.2224Y-5.748
X4.2224Y-5.7776
X4.4409Y-3.2247
X4.4409Y-3.2838
X4.4409Y-4.2011
X4.4409Y-4.2601
X4.4409Y-5.1775
X4.4409Y-5.2365
X4.4705Y-3.2247
X4.4705Y-3.2838
X4.4705Y-4.2011
X4.4705Y-4.2601
X4.4705Y-5.1775
X4.4705Y-5.2365
X4.5Y-3.2247
X4.5Y-3.2838
X4.5Y-4.2011
X4.5Y-4.2601
X4.5Y-5.1775
X4.5Y-5.2365
X4.7185Y-2.7894
X4.7185Y-2.8189
X4.7185Y-2.8484
X4.7185Y-3.7657
X4.7185Y-3.7953
X4.7185Y-3.8248
X4.7185Y-4.7421
X4.7185Y-4.7717
X4.7185Y-4.8012
X4.7185Y-5.7185
X4.7185Y-5.748
X4.7185Y-5.7776
X4.7776Y-2.7894
X4.7776Y-2.8189
X4.7776Y-2.8484
X4.7776Y-3.7657
X4.7776Y-3.7953
X4.7776Y-3.8248
X4.7776Y-4.7421
X4.7776Y-4.7717
X4.7776Y-4.8012
X4.7776Y-5.7185
X4.7776Y-5.748
X4.7776Y-5.7776
X4.9961Y-3.2247
X4.9961Y-3.2838
X4.9961Y-4.2011
X4.9961Y-4.2601
X4.9961Y-5.1775
X4.9961Y-5.2365
X5.0256Y-3.2247
X5.0256Y-3.2838
X5.0256Y-4.2011
X5.0256Y-4.2601
X5.0256Y-5.1775
X5.0256Y-5.2365
X5.0551Y-3.2247
X5.0551Y-3.2838
X5.0551Y-4.2011
X5.0551Y-4.2601
X5.0551Y-5.1775
X5.0551Y-5.2365
X5.2736Y-2.7894
X5.2736Y-2.8189
X5.2736Y-2.8484
X5.2736Y-3.7657
X5.2736Y-3.7953
X5.2736Y-3.8248
X5.2736Y-4.7421
X5.2736Y-4.7717
X5.2736Y-4.8012
X5.2736Y-5.7185
X5.2736Y-5.748
X5.2736Y-5.7776
X5.3327Y-2.7894
X5.3327Y-2.8189
X5.3327Y-2.8484
X5.3327Y-3.7657
X5.3327Y-3.7953
X5.3327Y-3.8248
X5.3327Y-4.7421
X5.3327Y-4.7717
X5.3327Y-4.8012
X5.3327Y-5.7185
X5.3327Y-5.748
X5.3327Y-5.7776
X5.5512Y-3.2247
X5.5512Y-3.2838
X5.5512Y-4.2011
X5.5512Y-4.2601
X5.5512Y-5.1775
X5.5512Y-5.2365
X5.5807Y-3.2247
X5.5807Y-3.2838
X5.5807Y-4.2011
X5.5807Y-4.2601
X5.5807Y-5.1775
X5.5807Y-5.2365
X5.6102Y-3.2247
X5.6102Y-3.2838
X5.6102Y-4.2011
X5.6102Y-4.2601
X5.6102Y-5.1775
X5.6102Y-5.2365
X5.8287Y-2.7894
X5.8287Y-2.8189
X5.8287Y-2.8484
X5.8287Y-3.7657
X5.8287Y-3.7953
X5.8287Y-3.8248
X5.8287Y-4.7421
X5.8287Y-4.7717
X5.8287Y-4.8012
X5.8287Y-5.7185
X5.8287Y-5.748
X5.8287Y-5.7776
X5.8878Y-2.7894
X5.8878Y-2.8189
X5.8878Y-2.8484
X5.8878Y-3.7657
X5.8878Y-3.7953
X5.8878Y-3.8248
X5.8878Y-4.7421
X5.8878Y-4.7717
X5.8878Y-4.8012
X5.8878Y-5.7185
X5.8878Y-5.748
X5.8878Y-5.7776
X6.1063Y-3.2247
X6.1063Y-3.2838
X6.1063Y-4.2011
X6.1063Y-4.2601
X6.1063Y-5.1775
X6.1063Y-5.2365
X6.1358Y-3.2247
X6.1358Y-3.2838
X6.1358Y-4.2011
X6.1358Y-4.2601
X6.1358Y-5.1775
X6.1358Y-5.2365
X6.1654Y-3.2247
X6.1654Y-3.2838
X6.1654Y-4.2011
X6.1654Y-4.2601
X6.1654Y-5.1775
X6.1654Y-5.2365
X6.3839Y-2.7894
X6.3839Y-2.8189
X6.3839Y-2.8484
X6.3839Y-3.7657
X6.3839Y-3.7953
X6.3839Y-3.8248
X6.3839Y-4.7421
X6.3839Y-4.7717
X6.3839Y-4.8012
X6.3839Y-5.7185
X6.3839Y-5.748
X6.3839Y-5.7776
X6.4429Y-2.7894
X6.4429Y-2.8189
X6.4429Y-2.8484
X6.4429Y-3.7657
X6.4429Y-3.7953
X6.4429Y-3.8248
X6.4429Y-4.7421
X6.4429Y-4.7717
X6.4429Y-4.8012
X6.4429Y-5.7185
X6.4429Y-5.748
X6.4429Y-5.7776
T0
M30
