%TF.GenerationSoftware,KiCad,Pcbnew,7.0.8*%
%TF.CreationDate,2024-02-11T12:05:53+00:00*%
%TF.ProjectId,QMK_controller_test,514d4b5f-636f-46e7-9472-6f6c6c65725f,rev?*%
%TF.SameCoordinates,Original*%
%TF.FileFunction,Legend,Bot*%
%TF.FilePolarity,Positive*%
%FSLAX46Y46*%
G04 Gerber Fmt 4.6, Leading zero omitted, Abs format (unit mm)*
G04 Created by KiCad (PCBNEW 7.0.8) date 2024-02-11 12:05:53*
%MOMM*%
%LPD*%
G01*
G04 APERTURE LIST*
%ADD10R,0.850000X0.850000*%
%ADD11O,0.850000X0.850000*%
%ADD12C,0.500000*%
G04 APERTURE END LIST*
%LPC*%
D10*
%TO.C,J3*%
X109400000Y-67457500D03*
D11*
X109400000Y-66457500D03*
%TD*%
D12*
%TO.C,mouse-bite-2mm-slot*%
X105750000Y-72350000D03*
X107250000Y-72350000D03*
X105750000Y-71600000D03*
X107250000Y-71600000D03*
X105750000Y-70850000D03*
X107250000Y-70850000D03*
%TD*%
%TO.C,mouse-bite-2mm-slot*%
X162150000Y-72350000D03*
X163650000Y-72350000D03*
X162150000Y-71600000D03*
X163650000Y-71600000D03*
X162150000Y-70850000D03*
X163650000Y-70850000D03*
%TD*%
%TO.C,mouse-bite-2mm-slot*%
X141000000Y-106707500D03*
X141000000Y-108207500D03*
X141750000Y-106707500D03*
X141750000Y-108207500D03*
X142500000Y-106707500D03*
X142500000Y-108207500D03*
%TD*%
%TO.C,mouse-bite-2mm-slot*%
X98700000Y-131507500D03*
X98700000Y-133007500D03*
X99450000Y-131507500D03*
X99450000Y-133007500D03*
X100200000Y-131507500D03*
X100200000Y-133007500D03*
%TD*%
%TO.C,mouse-bite-2mm-slot*%
X91650000Y-146750000D03*
X93150000Y-146750000D03*
X91650000Y-146000000D03*
X93150000Y-146000000D03*
X91650000Y-145250000D03*
X93150000Y-145250000D03*
%TD*%
D10*
%TO.C,J3*%
X95300000Y-92257500D03*
D11*
X95300000Y-91257500D03*
%TD*%
D12*
%TO.C,mouse-bite-2mm-slot*%
X77550000Y-72350000D03*
X79050000Y-72350000D03*
X77550000Y-71600000D03*
X79050000Y-71600000D03*
X77550000Y-70850000D03*
X79050000Y-70850000D03*
%TD*%
%TO.C,mouse-bite-2mm-slot*%
X105750000Y-121950000D03*
X107250000Y-121950000D03*
X105750000Y-121200000D03*
X107250000Y-121200000D03*
X105750000Y-120450000D03*
X107250000Y-120450000D03*
%TD*%
%TO.C,mouse-bite-2mm-slot*%
X77550000Y-121950000D03*
X79050000Y-121950000D03*
X77550000Y-121200000D03*
X79050000Y-121200000D03*
X77550000Y-120450000D03*
X79050000Y-120450000D03*
%TD*%
%TO.C,mouse-bite-2mm-slot*%
X162150000Y-97150000D03*
X163650000Y-97150000D03*
X162150000Y-96400000D03*
X163650000Y-96400000D03*
X162150000Y-95650000D03*
X163650000Y-95650000D03*
%TD*%
%TO.C,mouse-bite-2mm-slot*%
X91650000Y-97150000D03*
X93150000Y-97150000D03*
X91650000Y-96400000D03*
X93150000Y-96400000D03*
X91650000Y-95650000D03*
X93150000Y-95650000D03*
%TD*%
%TO.C,mouse-bite-2mm-slot*%
X98700000Y-106707500D03*
X98700000Y-108207500D03*
X99450000Y-106707500D03*
X99450000Y-108207500D03*
X100200000Y-106707500D03*
X100200000Y-108207500D03*
%TD*%
D10*
%TO.C,J3*%
X81200000Y-141857500D03*
D11*
X81200000Y-140857500D03*
%TD*%
D10*
%TO.C,J3*%
X137600000Y-117057500D03*
D11*
X137600000Y-116057500D03*
%TD*%
D10*
%TO.C,J3*%
X123500000Y-117057500D03*
D11*
X123500000Y-116057500D03*
%TD*%
D12*
%TO.C,mouse-bite-2mm-slot*%
X119850000Y-121950000D03*
X121350000Y-121950000D03*
X119850000Y-121200000D03*
X121350000Y-121200000D03*
X119850000Y-120450000D03*
X121350000Y-120450000D03*
%TD*%
%TO.C,mouse-bite-2mm-slot*%
X133950000Y-121950000D03*
X135450000Y-121950000D03*
X133950000Y-121200000D03*
X135450000Y-121200000D03*
X133950000Y-120450000D03*
X135450000Y-120450000D03*
%TD*%
%TO.C,mouse-bite-2mm-slot*%
X133950000Y-72350000D03*
X135450000Y-72350000D03*
X133950000Y-71600000D03*
X135450000Y-71600000D03*
X133950000Y-70850000D03*
X135450000Y-70850000D03*
%TD*%
D10*
%TO.C,J3*%
X123500000Y-67457500D03*
D11*
X123500000Y-66457500D03*
%TD*%
D12*
%TO.C,mouse-bite-2mm-slot*%
X155100000Y-81907500D03*
X155100000Y-83407500D03*
X155850000Y-81907500D03*
X155850000Y-83407500D03*
X156600000Y-81907500D03*
X156600000Y-83407500D03*
%TD*%
%TO.C,mouse-bite-2mm-slot*%
X141000000Y-131507500D03*
X141000000Y-133007500D03*
X141750000Y-131507500D03*
X141750000Y-133007500D03*
X142500000Y-131507500D03*
X142500000Y-133007500D03*
%TD*%
D10*
%TO.C,J3*%
X123500000Y-141857500D03*
D11*
X123500000Y-140857500D03*
%TD*%
D10*
%TO.C,J3*%
X123500000Y-92257500D03*
D11*
X123500000Y-91257500D03*
%TD*%
D10*
%TO.C,J3*%
X137600000Y-67457500D03*
D11*
X137600000Y-66457500D03*
%TD*%
D12*
%TO.C,mouse-bite-2mm-slot*%
X112800000Y-131507500D03*
X112800000Y-133007500D03*
X113550000Y-131507500D03*
X113550000Y-133007500D03*
X114300000Y-131507500D03*
X114300000Y-133007500D03*
%TD*%
D10*
%TO.C,J3*%
X95300000Y-141857500D03*
D11*
X95300000Y-140857500D03*
%TD*%
D12*
%TO.C,mouse-bite-2mm-slot*%
X77550000Y-97150000D03*
X79050000Y-97150000D03*
X77550000Y-96400000D03*
X79050000Y-96400000D03*
X77550000Y-95650000D03*
X79050000Y-95650000D03*
%TD*%
%TO.C,mouse-bite-2mm-slot*%
X126900000Y-131507500D03*
X126900000Y-133007500D03*
X127650000Y-131507500D03*
X127650000Y-133007500D03*
X128400000Y-131507500D03*
X128400000Y-133007500D03*
%TD*%
%TO.C,mouse-bite-2mm-slot*%
X148050000Y-72350000D03*
X149550000Y-72350000D03*
X148050000Y-71600000D03*
X149550000Y-71600000D03*
X148050000Y-70850000D03*
X149550000Y-70850000D03*
%TD*%
%TO.C,mouse-bite-2mm-slot*%
X77550000Y-146750000D03*
X79050000Y-146750000D03*
X77550000Y-146000000D03*
X79050000Y-146000000D03*
X77550000Y-145250000D03*
X79050000Y-145250000D03*
%TD*%
D10*
%TO.C,J3*%
X109400000Y-92257500D03*
D11*
X109400000Y-91257500D03*
%TD*%
D10*
%TO.C,J3*%
X151700000Y-67457500D03*
D11*
X151700000Y-66457500D03*
%TD*%
D12*
%TO.C,mouse-bite-2mm-slot*%
X91650000Y-72350000D03*
X93150000Y-72350000D03*
X91650000Y-71600000D03*
X93150000Y-71600000D03*
X91650000Y-70850000D03*
X93150000Y-70850000D03*
%TD*%
D10*
%TO.C,J3*%
X95300000Y-117057500D03*
D11*
X95300000Y-116057500D03*
%TD*%
D12*
%TO.C,mouse-bite-2mm-slot*%
X119850000Y-97150000D03*
X121350000Y-97150000D03*
X119850000Y-96400000D03*
X121350000Y-96400000D03*
X119850000Y-95650000D03*
X121350000Y-95650000D03*
%TD*%
%TO.C,mouse-bite-2mm-slot*%
X133950000Y-97150000D03*
X135450000Y-97150000D03*
X133950000Y-96400000D03*
X135450000Y-96400000D03*
X133950000Y-95650000D03*
X135450000Y-95650000D03*
%TD*%
%TO.C,mouse-bite-2mm-slot*%
X141000000Y-81907500D03*
X141000000Y-83407500D03*
X141750000Y-81907500D03*
X141750000Y-83407500D03*
X142500000Y-81907500D03*
X142500000Y-83407500D03*
%TD*%
%TO.C,mouse-bite-2mm-slot*%
X84600000Y-106707500D03*
X84600000Y-108207500D03*
X85350000Y-106707500D03*
X85350000Y-108207500D03*
X86100000Y-106707500D03*
X86100000Y-108207500D03*
%TD*%
%TO.C,mouse-bite-2mm-slot*%
X84600000Y-81907500D03*
X84600000Y-83407500D03*
X85350000Y-81907500D03*
X85350000Y-83407500D03*
X86100000Y-81907500D03*
X86100000Y-83407500D03*
%TD*%
D10*
%TO.C,J3*%
X109400000Y-141857500D03*
D11*
X109400000Y-140857500D03*
%TD*%
D12*
%TO.C,mouse-bite-2mm-slot*%
X112800000Y-81907500D03*
X112800000Y-83407500D03*
X113550000Y-81907500D03*
X113550000Y-83407500D03*
X114300000Y-81907500D03*
X114300000Y-83407500D03*
%TD*%
D10*
%TO.C,J3*%
X151700000Y-117057500D03*
D11*
X151700000Y-116057500D03*
%TD*%
D12*
%TO.C,mouse-bite-2mm-slot*%
X162150000Y-121950000D03*
X163650000Y-121950000D03*
X162150000Y-121200000D03*
X163650000Y-121200000D03*
X162150000Y-120450000D03*
X163650000Y-120450000D03*
%TD*%
D10*
%TO.C,J3*%
X151700000Y-92257500D03*
D11*
X151700000Y-91257500D03*
%TD*%
D12*
%TO.C,mouse-bite-2mm-slot*%
X126900000Y-81907500D03*
X126900000Y-83407500D03*
X127650000Y-81907500D03*
X127650000Y-83407500D03*
X128400000Y-81907500D03*
X128400000Y-83407500D03*
%TD*%
%TO.C,mouse-bite-2mm-slot*%
X126900000Y-106707500D03*
X126900000Y-108207500D03*
X127650000Y-106707500D03*
X127650000Y-108207500D03*
X128400000Y-106707500D03*
X128400000Y-108207500D03*
%TD*%
%TO.C,mouse-bite-2mm-slot*%
X91650000Y-121950000D03*
X93150000Y-121950000D03*
X91650000Y-121200000D03*
X93150000Y-121200000D03*
X91650000Y-120450000D03*
X93150000Y-120450000D03*
%TD*%
%TO.C,mouse-bite-2mm-slot*%
X148050000Y-121950000D03*
X149550000Y-121950000D03*
X148050000Y-121200000D03*
X149550000Y-121200000D03*
X148050000Y-120450000D03*
X149550000Y-120450000D03*
%TD*%
D10*
%TO.C,J3*%
X109400000Y-117057500D03*
D11*
X109400000Y-116057500D03*
%TD*%
D10*
%TO.C,J3*%
X81200000Y-67457500D03*
D11*
X81200000Y-66457500D03*
%TD*%
D12*
%TO.C,mouse-bite-2mm-slot*%
X84600000Y-131507500D03*
X84600000Y-133007500D03*
X85350000Y-131507500D03*
X85350000Y-133007500D03*
X86100000Y-131507500D03*
X86100000Y-133007500D03*
%TD*%
%TO.C,mouse-bite-2mm-slot*%
X155100000Y-106707500D03*
X155100000Y-108207500D03*
X155850000Y-106707500D03*
X155850000Y-108207500D03*
X156600000Y-106707500D03*
X156600000Y-108207500D03*
%TD*%
%TO.C,mouse-bite-2mm-slot*%
X155100000Y-131507500D03*
X155100000Y-133007500D03*
X155850000Y-131507500D03*
X155850000Y-133007500D03*
X156600000Y-131507500D03*
X156600000Y-133007500D03*
%TD*%
%TO.C,mouse-bite-2mm-slot*%
X119850000Y-72350000D03*
X121350000Y-72350000D03*
X119850000Y-71600000D03*
X121350000Y-71600000D03*
X119850000Y-70850000D03*
X121350000Y-70850000D03*
%TD*%
%TO.C,mouse-bite-2mm-slot*%
X105750000Y-97150000D03*
X107250000Y-97150000D03*
X105750000Y-96400000D03*
X107250000Y-96400000D03*
X105750000Y-95650000D03*
X107250000Y-95650000D03*
%TD*%
%TO.C,mouse-bite-2mm-slot*%
X162150000Y-146750000D03*
X163650000Y-146750000D03*
X162150000Y-146000000D03*
X163650000Y-146000000D03*
X162150000Y-145250000D03*
X163650000Y-145250000D03*
%TD*%
%TO.C,mouse-bite-2mm-slot*%
X112800000Y-106707500D03*
X112800000Y-108207500D03*
X113550000Y-106707500D03*
X113550000Y-108207500D03*
X114300000Y-106707500D03*
X114300000Y-108207500D03*
%TD*%
D10*
%TO.C,J3*%
X95300000Y-67457500D03*
D11*
X95300000Y-66457500D03*
%TD*%
D12*
%TO.C,mouse-bite-2mm-slot*%
X105750000Y-146750000D03*
X107250000Y-146750000D03*
X105750000Y-146000000D03*
X107250000Y-146000000D03*
X105750000Y-145250000D03*
X107250000Y-145250000D03*
%TD*%
%TO.C,mouse-bite-2mm-slot*%
X119850000Y-146750000D03*
X121350000Y-146750000D03*
X119850000Y-146000000D03*
X121350000Y-146000000D03*
X119850000Y-145250000D03*
X121350000Y-145250000D03*
%TD*%
%TO.C,mouse-bite-2mm-slot*%
X148050000Y-97150000D03*
X149550000Y-97150000D03*
X148050000Y-96400000D03*
X149550000Y-96400000D03*
X148050000Y-95650000D03*
X149550000Y-95650000D03*
%TD*%
%TO.C,mouse-bite-2mm-slot*%
X98700000Y-81907500D03*
X98700000Y-83407500D03*
X99450000Y-81907500D03*
X99450000Y-83407500D03*
X100200000Y-81907500D03*
X100200000Y-83407500D03*
%TD*%
D10*
%TO.C,J3*%
X151700000Y-141857500D03*
D11*
X151700000Y-140857500D03*
%TD*%
D10*
%TO.C,J3*%
X81200000Y-92257500D03*
D11*
X81200000Y-91257500D03*
%TD*%
D12*
%TO.C,mouse-bite-2mm-slot*%
X148050000Y-146750000D03*
X149550000Y-146750000D03*
X148050000Y-146000000D03*
X149550000Y-146000000D03*
X148050000Y-145250000D03*
X149550000Y-145250000D03*
%TD*%
D10*
%TO.C,J3*%
X81200000Y-117057500D03*
D11*
X81200000Y-116057500D03*
%TD*%
D10*
%TO.C,J3*%
X137600000Y-92257500D03*
D11*
X137600000Y-91257500D03*
%TD*%
D12*
%TO.C,mouse-bite-2mm-slot*%
X133950000Y-146750000D03*
X135450000Y-146750000D03*
X133950000Y-146000000D03*
X135450000Y-146000000D03*
X133950000Y-145250000D03*
X135450000Y-145250000D03*
%TD*%
D10*
%TO.C,J3*%
X137600000Y-141857500D03*
D11*
X137600000Y-140857500D03*
%TD*%
G36*
X159386382Y-108478500D02*
G01*
X159413453Y-108484679D01*
X159577309Y-108542015D01*
X159602326Y-108554062D01*
X159749312Y-108646419D01*
X159771021Y-108663732D01*
X159893767Y-108786478D01*
X159911080Y-108808187D01*
X160003437Y-108955173D01*
X160015484Y-108980190D01*
X160072820Y-109144046D01*
X160078999Y-109171117D01*
X160099610Y-109354034D01*
X160100000Y-109360982D01*
X160100000Y-112554017D01*
X160099610Y-112560965D01*
X160078999Y-112743882D01*
X160072820Y-112770953D01*
X160015484Y-112934809D01*
X160003437Y-112959826D01*
X159911080Y-113106812D01*
X159893767Y-113128521D01*
X159771021Y-113251267D01*
X159749312Y-113268580D01*
X159602326Y-113360937D01*
X159577309Y-113372984D01*
X159413453Y-113430320D01*
X159386382Y-113436499D01*
X159213884Y-113455935D01*
X159186116Y-113455935D01*
X159013617Y-113436499D01*
X158986546Y-113430320D01*
X158822690Y-113372984D01*
X158797673Y-113360937D01*
X158650687Y-113268580D01*
X158628978Y-113251267D01*
X158506232Y-113128521D01*
X158488919Y-113106812D01*
X158396562Y-112959826D01*
X158384515Y-112934809D01*
X158327179Y-112770953D01*
X158321000Y-112743881D01*
X158300390Y-112560964D01*
X158300000Y-112554017D01*
X158300000Y-109360982D01*
X158300390Y-109354035D01*
X158321000Y-109171118D01*
X158327179Y-109144046D01*
X158384515Y-108980190D01*
X158396562Y-108955173D01*
X158488919Y-108808187D01*
X158506232Y-108786478D01*
X158628978Y-108663732D01*
X158650687Y-108646419D01*
X158797673Y-108554062D01*
X158822690Y-108542015D01*
X158986546Y-108484679D01*
X159013617Y-108478500D01*
X159186116Y-108459064D01*
X159213884Y-108459064D01*
X159386382Y-108478500D01*
G37*
G36*
X117086382Y-133278500D02*
G01*
X117113453Y-133284679D01*
X117277309Y-133342015D01*
X117302326Y-133354062D01*
X117449312Y-133446419D01*
X117471021Y-133463732D01*
X117593767Y-133586478D01*
X117611080Y-133608187D01*
X117703437Y-133755173D01*
X117715484Y-133780190D01*
X117772820Y-133944046D01*
X117778999Y-133971117D01*
X117799610Y-134154034D01*
X117800000Y-134160982D01*
X117800000Y-137354017D01*
X117799610Y-137360965D01*
X117778999Y-137543882D01*
X117772820Y-137570953D01*
X117715484Y-137734809D01*
X117703437Y-137759826D01*
X117611080Y-137906812D01*
X117593767Y-137928521D01*
X117471021Y-138051267D01*
X117449312Y-138068580D01*
X117302326Y-138160937D01*
X117277309Y-138172984D01*
X117113453Y-138230320D01*
X117086382Y-138236499D01*
X116913884Y-138255935D01*
X116886116Y-138255935D01*
X116713617Y-138236499D01*
X116686546Y-138230320D01*
X116522690Y-138172984D01*
X116497673Y-138160937D01*
X116350687Y-138068580D01*
X116328978Y-138051267D01*
X116206232Y-137928521D01*
X116188919Y-137906812D01*
X116096562Y-137759826D01*
X116084515Y-137734809D01*
X116027179Y-137570953D01*
X116021000Y-137543881D01*
X116000390Y-137360964D01*
X116000000Y-137354017D01*
X116000000Y-134160982D01*
X116000390Y-134154035D01*
X116021000Y-133971118D01*
X116027179Y-133944046D01*
X116084515Y-133780190D01*
X116096562Y-133755173D01*
X116188919Y-133608187D01*
X116206232Y-133586478D01*
X116328978Y-133463732D01*
X116350687Y-133446419D01*
X116497673Y-133354062D01*
X116522690Y-133342015D01*
X116686546Y-133284679D01*
X116713617Y-133278500D01*
X116886116Y-133259064D01*
X116913884Y-133259064D01*
X117086382Y-133278500D01*
G37*
G36*
X124586382Y-133278500D02*
G01*
X124613453Y-133284679D01*
X124777309Y-133342015D01*
X124802326Y-133354062D01*
X124949312Y-133446419D01*
X124971021Y-133463732D01*
X125093767Y-133586478D01*
X125111080Y-133608187D01*
X125203437Y-133755173D01*
X125215484Y-133780190D01*
X125272820Y-133944046D01*
X125278999Y-133971117D01*
X125299610Y-134154034D01*
X125300000Y-134160982D01*
X125300000Y-137354017D01*
X125299610Y-137360965D01*
X125278999Y-137543882D01*
X125272820Y-137570953D01*
X125215484Y-137734809D01*
X125203437Y-137759826D01*
X125111080Y-137906812D01*
X125093767Y-137928521D01*
X124971021Y-138051267D01*
X124949312Y-138068580D01*
X124802326Y-138160937D01*
X124777309Y-138172984D01*
X124613453Y-138230320D01*
X124586382Y-138236499D01*
X124413884Y-138255935D01*
X124386116Y-138255935D01*
X124213617Y-138236499D01*
X124186546Y-138230320D01*
X124022690Y-138172984D01*
X123997673Y-138160937D01*
X123850687Y-138068580D01*
X123828978Y-138051267D01*
X123706232Y-137928521D01*
X123688919Y-137906812D01*
X123596562Y-137759826D01*
X123584515Y-137734809D01*
X123527179Y-137570953D01*
X123521000Y-137543881D01*
X123500390Y-137360964D01*
X123500000Y-137354017D01*
X123500000Y-134160982D01*
X123500390Y-134154035D01*
X123521000Y-133971118D01*
X123527179Y-133944046D01*
X123584515Y-133780190D01*
X123596562Y-133755173D01*
X123688919Y-133608187D01*
X123706232Y-133586478D01*
X123828978Y-133463732D01*
X123850687Y-133446419D01*
X123997673Y-133354062D01*
X124022690Y-133342015D01*
X124186546Y-133284679D01*
X124213617Y-133278500D01*
X124386116Y-133259064D01*
X124413884Y-133259064D01*
X124586382Y-133278500D01*
G37*
G36*
X159386382Y-133278500D02*
G01*
X159413453Y-133284679D01*
X159577309Y-133342015D01*
X159602326Y-133354062D01*
X159749312Y-133446419D01*
X159771021Y-133463732D01*
X159893767Y-133586478D01*
X159911080Y-133608187D01*
X160003437Y-133755173D01*
X160015484Y-133780190D01*
X160072820Y-133944046D01*
X160078999Y-133971117D01*
X160099610Y-134154034D01*
X160100000Y-134160982D01*
X160100000Y-137354017D01*
X160099610Y-137360965D01*
X160078999Y-137543882D01*
X160072820Y-137570953D01*
X160015484Y-137734809D01*
X160003437Y-137759826D01*
X159911080Y-137906812D01*
X159893767Y-137928521D01*
X159771021Y-138051267D01*
X159749312Y-138068580D01*
X159602326Y-138160937D01*
X159577309Y-138172984D01*
X159413453Y-138230320D01*
X159386382Y-138236499D01*
X159213884Y-138255935D01*
X159186116Y-138255935D01*
X159013617Y-138236499D01*
X158986546Y-138230320D01*
X158822690Y-138172984D01*
X158797673Y-138160937D01*
X158650687Y-138068580D01*
X158628978Y-138051267D01*
X158506232Y-137928521D01*
X158488919Y-137906812D01*
X158396562Y-137759826D01*
X158384515Y-137734809D01*
X158327179Y-137570953D01*
X158321000Y-137543881D01*
X158300390Y-137360964D01*
X158300000Y-137354017D01*
X158300000Y-134160982D01*
X158300390Y-134154035D01*
X158321000Y-133971118D01*
X158327179Y-133944046D01*
X158384515Y-133780190D01*
X158396562Y-133755173D01*
X158488919Y-133608187D01*
X158506232Y-133586478D01*
X158628978Y-133463732D01*
X158650687Y-133446419D01*
X158797673Y-133354062D01*
X158822690Y-133342015D01*
X158986546Y-133284679D01*
X159013617Y-133278500D01*
X159186116Y-133259064D01*
X159213884Y-133259064D01*
X159386382Y-133278500D01*
G37*
G36*
X102986382Y-83678500D02*
G01*
X103013453Y-83684679D01*
X103177309Y-83742015D01*
X103202326Y-83754062D01*
X103349312Y-83846419D01*
X103371021Y-83863732D01*
X103493767Y-83986478D01*
X103511080Y-84008187D01*
X103603437Y-84155173D01*
X103615484Y-84180190D01*
X103672820Y-84344046D01*
X103678999Y-84371117D01*
X103699610Y-84554034D01*
X103700000Y-84560982D01*
X103700000Y-87754017D01*
X103699610Y-87760965D01*
X103678999Y-87943882D01*
X103672820Y-87970953D01*
X103615484Y-88134809D01*
X103603437Y-88159826D01*
X103511080Y-88306812D01*
X103493767Y-88328521D01*
X103371021Y-88451267D01*
X103349312Y-88468580D01*
X103202326Y-88560937D01*
X103177309Y-88572984D01*
X103013453Y-88630320D01*
X102986382Y-88636499D01*
X102813884Y-88655935D01*
X102786116Y-88655935D01*
X102613617Y-88636499D01*
X102586546Y-88630320D01*
X102422690Y-88572984D01*
X102397673Y-88560937D01*
X102250687Y-88468580D01*
X102228978Y-88451267D01*
X102106232Y-88328521D01*
X102088919Y-88306812D01*
X101996562Y-88159826D01*
X101984515Y-88134809D01*
X101927179Y-87970953D01*
X101921000Y-87943881D01*
X101900390Y-87760964D01*
X101900000Y-87754017D01*
X101900000Y-84560982D01*
X101900390Y-84554035D01*
X101921000Y-84371118D01*
X101927179Y-84344046D01*
X101984515Y-84180190D01*
X101996562Y-84155173D01*
X102088919Y-84008187D01*
X102106232Y-83986478D01*
X102228978Y-83863732D01*
X102250687Y-83846419D01*
X102397673Y-83754062D01*
X102422690Y-83742015D01*
X102586546Y-83684679D01*
X102613617Y-83678500D01*
X102786116Y-83659064D01*
X102813884Y-83659064D01*
X102986382Y-83678500D01*
G37*
G36*
X138686382Y-83678500D02*
G01*
X138713453Y-83684679D01*
X138877309Y-83742015D01*
X138902326Y-83754062D01*
X139049312Y-83846419D01*
X139071021Y-83863732D01*
X139193767Y-83986478D01*
X139211080Y-84008187D01*
X139303437Y-84155173D01*
X139315484Y-84180190D01*
X139372820Y-84344046D01*
X139378999Y-84371117D01*
X139399610Y-84554034D01*
X139400000Y-84560982D01*
X139400000Y-87754017D01*
X139399610Y-87760965D01*
X139378999Y-87943882D01*
X139372820Y-87970953D01*
X139315484Y-88134809D01*
X139303437Y-88159826D01*
X139211080Y-88306812D01*
X139193767Y-88328521D01*
X139071021Y-88451267D01*
X139049312Y-88468580D01*
X138902326Y-88560937D01*
X138877309Y-88572984D01*
X138713453Y-88630320D01*
X138686382Y-88636499D01*
X138513884Y-88655935D01*
X138486116Y-88655935D01*
X138313617Y-88636499D01*
X138286546Y-88630320D01*
X138122690Y-88572984D01*
X138097673Y-88560937D01*
X137950687Y-88468580D01*
X137928978Y-88451267D01*
X137806232Y-88328521D01*
X137788919Y-88306812D01*
X137696562Y-88159826D01*
X137684515Y-88134809D01*
X137627179Y-87970953D01*
X137621000Y-87943881D01*
X137600390Y-87760964D01*
X137600000Y-87754017D01*
X137600000Y-84560982D01*
X137600390Y-84554035D01*
X137621000Y-84371118D01*
X137627179Y-84344046D01*
X137684515Y-84180190D01*
X137696562Y-84155173D01*
X137788919Y-84008187D01*
X137806232Y-83986478D01*
X137928978Y-83863732D01*
X137950687Y-83846419D01*
X138097673Y-83754062D01*
X138122690Y-83742015D01*
X138286546Y-83684679D01*
X138313617Y-83678500D01*
X138486116Y-83659064D01*
X138513884Y-83659064D01*
X138686382Y-83678500D01*
G37*
G36*
X110486382Y-108478500D02*
G01*
X110513453Y-108484679D01*
X110677309Y-108542015D01*
X110702326Y-108554062D01*
X110849312Y-108646419D01*
X110871021Y-108663732D01*
X110993767Y-108786478D01*
X111011080Y-108808187D01*
X111103437Y-108955173D01*
X111115484Y-108980190D01*
X111172820Y-109144046D01*
X111178999Y-109171117D01*
X111199610Y-109354034D01*
X111200000Y-109360982D01*
X111200000Y-112554017D01*
X111199610Y-112560965D01*
X111178999Y-112743882D01*
X111172820Y-112770953D01*
X111115484Y-112934809D01*
X111103437Y-112959826D01*
X111011080Y-113106812D01*
X110993767Y-113128521D01*
X110871021Y-113251267D01*
X110849312Y-113268580D01*
X110702326Y-113360937D01*
X110677309Y-113372984D01*
X110513453Y-113430320D01*
X110486382Y-113436499D01*
X110313884Y-113455935D01*
X110286116Y-113455935D01*
X110113617Y-113436499D01*
X110086546Y-113430320D01*
X109922690Y-113372984D01*
X109897673Y-113360937D01*
X109750687Y-113268580D01*
X109728978Y-113251267D01*
X109606232Y-113128521D01*
X109588919Y-113106812D01*
X109496562Y-112959826D01*
X109484515Y-112934809D01*
X109427179Y-112770953D01*
X109421000Y-112743881D01*
X109400390Y-112560964D01*
X109400000Y-112554017D01*
X109400000Y-109360982D01*
X109400390Y-109354035D01*
X109421000Y-109171118D01*
X109427179Y-109144046D01*
X109484515Y-108980190D01*
X109496562Y-108955173D01*
X109588919Y-108808187D01*
X109606232Y-108786478D01*
X109728978Y-108663732D01*
X109750687Y-108646419D01*
X109897673Y-108554062D01*
X109922690Y-108542015D01*
X110086546Y-108484679D01*
X110113617Y-108478500D01*
X110286116Y-108459064D01*
X110313884Y-108459064D01*
X110486382Y-108478500D01*
G37*
G36*
X102986382Y-58878500D02*
G01*
X103013453Y-58884679D01*
X103177309Y-58942015D01*
X103202326Y-58954062D01*
X103349312Y-59046419D01*
X103371021Y-59063732D01*
X103493767Y-59186478D01*
X103511080Y-59208187D01*
X103603437Y-59355173D01*
X103615484Y-59380190D01*
X103672820Y-59544046D01*
X103678999Y-59571117D01*
X103699610Y-59754034D01*
X103700000Y-59760982D01*
X103700000Y-62954017D01*
X103699610Y-62960965D01*
X103678999Y-63143882D01*
X103672820Y-63170953D01*
X103615484Y-63334809D01*
X103603437Y-63359826D01*
X103511080Y-63506812D01*
X103493767Y-63528521D01*
X103371021Y-63651267D01*
X103349312Y-63668580D01*
X103202326Y-63760937D01*
X103177309Y-63772984D01*
X103013453Y-63830320D01*
X102986382Y-63836499D01*
X102813884Y-63855935D01*
X102786116Y-63855935D01*
X102613617Y-63836499D01*
X102586546Y-63830320D01*
X102422690Y-63772984D01*
X102397673Y-63760937D01*
X102250687Y-63668580D01*
X102228978Y-63651267D01*
X102106232Y-63528521D01*
X102088919Y-63506812D01*
X101996562Y-63359826D01*
X101984515Y-63334809D01*
X101927179Y-63170953D01*
X101921000Y-63143881D01*
X101900390Y-62960964D01*
X101900000Y-62954017D01*
X101900000Y-59760982D01*
X101900390Y-59754035D01*
X101921000Y-59571118D01*
X101927179Y-59544046D01*
X101984515Y-59380190D01*
X101996562Y-59355173D01*
X102088919Y-59208187D01*
X102106232Y-59186478D01*
X102228978Y-59063732D01*
X102250687Y-59046419D01*
X102397673Y-58954062D01*
X102422690Y-58942015D01*
X102586546Y-58884679D01*
X102613617Y-58878500D01*
X102786116Y-58859064D01*
X102813884Y-58859064D01*
X102986382Y-58878500D01*
G37*
G36*
X152786382Y-58878500D02*
G01*
X152813453Y-58884679D01*
X152977309Y-58942015D01*
X153002326Y-58954062D01*
X153149312Y-59046419D01*
X153171021Y-59063732D01*
X153293767Y-59186478D01*
X153311080Y-59208187D01*
X153403437Y-59355173D01*
X153415484Y-59380190D01*
X153472820Y-59544046D01*
X153478999Y-59571117D01*
X153499610Y-59754034D01*
X153500000Y-59760982D01*
X153500000Y-62954017D01*
X153499610Y-62960965D01*
X153478999Y-63143882D01*
X153472820Y-63170953D01*
X153415484Y-63334809D01*
X153403437Y-63359826D01*
X153311080Y-63506812D01*
X153293767Y-63528521D01*
X153171021Y-63651267D01*
X153149312Y-63668580D01*
X153002326Y-63760937D01*
X152977309Y-63772984D01*
X152813453Y-63830320D01*
X152786382Y-63836499D01*
X152613884Y-63855935D01*
X152586116Y-63855935D01*
X152413617Y-63836499D01*
X152386546Y-63830320D01*
X152222690Y-63772984D01*
X152197673Y-63760937D01*
X152050687Y-63668580D01*
X152028978Y-63651267D01*
X151906232Y-63528521D01*
X151888919Y-63506812D01*
X151796562Y-63359826D01*
X151784515Y-63334809D01*
X151727179Y-63170953D01*
X151721000Y-63143881D01*
X151700390Y-62960964D01*
X151700000Y-62954017D01*
X151700000Y-59760982D01*
X151700390Y-59754035D01*
X151721000Y-59571118D01*
X151727179Y-59544046D01*
X151784515Y-59380190D01*
X151796562Y-59355173D01*
X151888919Y-59208187D01*
X151906232Y-59186478D01*
X152028978Y-59063732D01*
X152050687Y-59046419D01*
X152197673Y-58954062D01*
X152222690Y-58942015D01*
X152386546Y-58884679D01*
X152413617Y-58878500D01*
X152586116Y-58859064D01*
X152613884Y-58859064D01*
X152786382Y-58878500D01*
G37*
G36*
X96386382Y-108478500D02*
G01*
X96413453Y-108484679D01*
X96577309Y-108542015D01*
X96602326Y-108554062D01*
X96749312Y-108646419D01*
X96771021Y-108663732D01*
X96893767Y-108786478D01*
X96911080Y-108808187D01*
X97003437Y-108955173D01*
X97015484Y-108980190D01*
X97072820Y-109144046D01*
X97078999Y-109171117D01*
X97099610Y-109354034D01*
X97100000Y-109360982D01*
X97100000Y-112554017D01*
X97099610Y-112560965D01*
X97078999Y-112743882D01*
X97072820Y-112770953D01*
X97015484Y-112934809D01*
X97003437Y-112959826D01*
X96911080Y-113106812D01*
X96893767Y-113128521D01*
X96771021Y-113251267D01*
X96749312Y-113268580D01*
X96602326Y-113360937D01*
X96577309Y-113372984D01*
X96413453Y-113430320D01*
X96386382Y-113436499D01*
X96213884Y-113455935D01*
X96186116Y-113455935D01*
X96013617Y-113436499D01*
X95986546Y-113430320D01*
X95822690Y-113372984D01*
X95797673Y-113360937D01*
X95650687Y-113268580D01*
X95628978Y-113251267D01*
X95506232Y-113128521D01*
X95488919Y-113106812D01*
X95396562Y-112959826D01*
X95384515Y-112934809D01*
X95327179Y-112770953D01*
X95321000Y-112743881D01*
X95300390Y-112560964D01*
X95300000Y-112554017D01*
X95300000Y-109360982D01*
X95300390Y-109354035D01*
X95321000Y-109171118D01*
X95327179Y-109144046D01*
X95384515Y-108980190D01*
X95396562Y-108955173D01*
X95488919Y-108808187D01*
X95506232Y-108786478D01*
X95628978Y-108663732D01*
X95650687Y-108646419D01*
X95797673Y-108554062D01*
X95822690Y-108542015D01*
X95986546Y-108484679D01*
X96013617Y-108478500D01*
X96186116Y-108459064D01*
X96213884Y-108459064D01*
X96386382Y-108478500D01*
G37*
G36*
X131186382Y-83678500D02*
G01*
X131213453Y-83684679D01*
X131377309Y-83742015D01*
X131402326Y-83754062D01*
X131549312Y-83846419D01*
X131571021Y-83863732D01*
X131693767Y-83986478D01*
X131711080Y-84008187D01*
X131803437Y-84155173D01*
X131815484Y-84180190D01*
X131872820Y-84344046D01*
X131878999Y-84371117D01*
X131899610Y-84554034D01*
X131900000Y-84560982D01*
X131900000Y-87754017D01*
X131899610Y-87760965D01*
X131878999Y-87943882D01*
X131872820Y-87970953D01*
X131815484Y-88134809D01*
X131803437Y-88159826D01*
X131711080Y-88306812D01*
X131693767Y-88328521D01*
X131571021Y-88451267D01*
X131549312Y-88468580D01*
X131402326Y-88560937D01*
X131377309Y-88572984D01*
X131213453Y-88630320D01*
X131186382Y-88636499D01*
X131013884Y-88655935D01*
X130986116Y-88655935D01*
X130813617Y-88636499D01*
X130786546Y-88630320D01*
X130622690Y-88572984D01*
X130597673Y-88560937D01*
X130450687Y-88468580D01*
X130428978Y-88451267D01*
X130306232Y-88328521D01*
X130288919Y-88306812D01*
X130196562Y-88159826D01*
X130184515Y-88134809D01*
X130127179Y-87970953D01*
X130121000Y-87943881D01*
X130100390Y-87760964D01*
X130100000Y-87754017D01*
X130100000Y-84560982D01*
X130100390Y-84554035D01*
X130121000Y-84371118D01*
X130127179Y-84344046D01*
X130184515Y-84180190D01*
X130196562Y-84155173D01*
X130288919Y-84008187D01*
X130306232Y-83986478D01*
X130428978Y-83863732D01*
X130450687Y-83846419D01*
X130597673Y-83754062D01*
X130622690Y-83742015D01*
X130786546Y-83684679D01*
X130813617Y-83678500D01*
X130986116Y-83659064D01*
X131013884Y-83659064D01*
X131186382Y-83678500D01*
G37*
G36*
X110486382Y-58878500D02*
G01*
X110513453Y-58884679D01*
X110677309Y-58942015D01*
X110702326Y-58954062D01*
X110849312Y-59046419D01*
X110871021Y-59063732D01*
X110993767Y-59186478D01*
X111011080Y-59208187D01*
X111103437Y-59355173D01*
X111115484Y-59380190D01*
X111172820Y-59544046D01*
X111178999Y-59571117D01*
X111199610Y-59754034D01*
X111200000Y-59760982D01*
X111200000Y-62954017D01*
X111199610Y-62960965D01*
X111178999Y-63143882D01*
X111172820Y-63170953D01*
X111115484Y-63334809D01*
X111103437Y-63359826D01*
X111011080Y-63506812D01*
X110993767Y-63528521D01*
X110871021Y-63651267D01*
X110849312Y-63668580D01*
X110702326Y-63760937D01*
X110677309Y-63772984D01*
X110513453Y-63830320D01*
X110486382Y-63836499D01*
X110313884Y-63855935D01*
X110286116Y-63855935D01*
X110113617Y-63836499D01*
X110086546Y-63830320D01*
X109922690Y-63772984D01*
X109897673Y-63760937D01*
X109750687Y-63668580D01*
X109728978Y-63651267D01*
X109606232Y-63528521D01*
X109588919Y-63506812D01*
X109496562Y-63359826D01*
X109484515Y-63334809D01*
X109427179Y-63170953D01*
X109421000Y-63143881D01*
X109400390Y-62960964D01*
X109400000Y-62954017D01*
X109400000Y-59760982D01*
X109400390Y-59754035D01*
X109421000Y-59571118D01*
X109427179Y-59544046D01*
X109484515Y-59380190D01*
X109496562Y-59355173D01*
X109588919Y-59208187D01*
X109606232Y-59186478D01*
X109728978Y-59063732D01*
X109750687Y-59046419D01*
X109897673Y-58954062D01*
X109922690Y-58942015D01*
X110086546Y-58884679D01*
X110113617Y-58878500D01*
X110286116Y-58859064D01*
X110313884Y-58859064D01*
X110486382Y-58878500D01*
G37*
G36*
X159386382Y-83678500D02*
G01*
X159413453Y-83684679D01*
X159577309Y-83742015D01*
X159602326Y-83754062D01*
X159749312Y-83846419D01*
X159771021Y-83863732D01*
X159893767Y-83986478D01*
X159911080Y-84008187D01*
X160003437Y-84155173D01*
X160015484Y-84180190D01*
X160072820Y-84344046D01*
X160078999Y-84371117D01*
X160099610Y-84554034D01*
X160100000Y-84560982D01*
X160100000Y-87754017D01*
X160099610Y-87760965D01*
X160078999Y-87943882D01*
X160072820Y-87970953D01*
X160015484Y-88134809D01*
X160003437Y-88159826D01*
X159911080Y-88306812D01*
X159893767Y-88328521D01*
X159771021Y-88451267D01*
X159749312Y-88468580D01*
X159602326Y-88560937D01*
X159577309Y-88572984D01*
X159413453Y-88630320D01*
X159386382Y-88636499D01*
X159213884Y-88655935D01*
X159186116Y-88655935D01*
X159013617Y-88636499D01*
X158986546Y-88630320D01*
X158822690Y-88572984D01*
X158797673Y-88560937D01*
X158650687Y-88468580D01*
X158628978Y-88451267D01*
X158506232Y-88328521D01*
X158488919Y-88306812D01*
X158396562Y-88159826D01*
X158384515Y-88134809D01*
X158327179Y-87970953D01*
X158321000Y-87943881D01*
X158300390Y-87760964D01*
X158300000Y-87754017D01*
X158300000Y-84560982D01*
X158300390Y-84554035D01*
X158321000Y-84371118D01*
X158327179Y-84344046D01*
X158384515Y-84180190D01*
X158396562Y-84155173D01*
X158488919Y-84008187D01*
X158506232Y-83986478D01*
X158628978Y-83863732D01*
X158650687Y-83846419D01*
X158797673Y-83754062D01*
X158822690Y-83742015D01*
X158986546Y-83684679D01*
X159013617Y-83678500D01*
X159186116Y-83659064D01*
X159213884Y-83659064D01*
X159386382Y-83678500D01*
G37*
G36*
X152786382Y-108478500D02*
G01*
X152813453Y-108484679D01*
X152977309Y-108542015D01*
X153002326Y-108554062D01*
X153149312Y-108646419D01*
X153171021Y-108663732D01*
X153293767Y-108786478D01*
X153311080Y-108808187D01*
X153403437Y-108955173D01*
X153415484Y-108980190D01*
X153472820Y-109144046D01*
X153478999Y-109171117D01*
X153499610Y-109354034D01*
X153500000Y-109360982D01*
X153500000Y-112554017D01*
X153499610Y-112560965D01*
X153478999Y-112743882D01*
X153472820Y-112770953D01*
X153415484Y-112934809D01*
X153403437Y-112959826D01*
X153311080Y-113106812D01*
X153293767Y-113128521D01*
X153171021Y-113251267D01*
X153149312Y-113268580D01*
X153002326Y-113360937D01*
X152977309Y-113372984D01*
X152813453Y-113430320D01*
X152786382Y-113436499D01*
X152613884Y-113455935D01*
X152586116Y-113455935D01*
X152413617Y-113436499D01*
X152386546Y-113430320D01*
X152222690Y-113372984D01*
X152197673Y-113360937D01*
X152050687Y-113268580D01*
X152028978Y-113251267D01*
X151906232Y-113128521D01*
X151888919Y-113106812D01*
X151796562Y-112959826D01*
X151784515Y-112934809D01*
X151727179Y-112770953D01*
X151721000Y-112743881D01*
X151700390Y-112560964D01*
X151700000Y-112554017D01*
X151700000Y-109360982D01*
X151700390Y-109354035D01*
X151721000Y-109171118D01*
X151727179Y-109144046D01*
X151784515Y-108980190D01*
X151796562Y-108955173D01*
X151888919Y-108808187D01*
X151906232Y-108786478D01*
X152028978Y-108663732D01*
X152050687Y-108646419D01*
X152197673Y-108554062D01*
X152222690Y-108542015D01*
X152386546Y-108484679D01*
X152413617Y-108478500D01*
X152586116Y-108459064D01*
X152613884Y-108459064D01*
X152786382Y-108478500D01*
G37*
G36*
X88886382Y-133278500D02*
G01*
X88913453Y-133284679D01*
X89077309Y-133342015D01*
X89102326Y-133354062D01*
X89249312Y-133446419D01*
X89271021Y-133463732D01*
X89393767Y-133586478D01*
X89411080Y-133608187D01*
X89503437Y-133755173D01*
X89515484Y-133780190D01*
X89572820Y-133944046D01*
X89578999Y-133971117D01*
X89599610Y-134154034D01*
X89600000Y-134160982D01*
X89600000Y-137354017D01*
X89599610Y-137360965D01*
X89578999Y-137543882D01*
X89572820Y-137570953D01*
X89515484Y-137734809D01*
X89503437Y-137759826D01*
X89411080Y-137906812D01*
X89393767Y-137928521D01*
X89271021Y-138051267D01*
X89249312Y-138068580D01*
X89102326Y-138160937D01*
X89077309Y-138172984D01*
X88913453Y-138230320D01*
X88886382Y-138236499D01*
X88713884Y-138255935D01*
X88686116Y-138255935D01*
X88513617Y-138236499D01*
X88486546Y-138230320D01*
X88322690Y-138172984D01*
X88297673Y-138160937D01*
X88150687Y-138068580D01*
X88128978Y-138051267D01*
X88006232Y-137928521D01*
X87988919Y-137906812D01*
X87896562Y-137759826D01*
X87884515Y-137734809D01*
X87827179Y-137570953D01*
X87821000Y-137543881D01*
X87800390Y-137360964D01*
X87800000Y-137354017D01*
X87800000Y-134160982D01*
X87800390Y-134154035D01*
X87821000Y-133971118D01*
X87827179Y-133944046D01*
X87884515Y-133780190D01*
X87896562Y-133755173D01*
X87988919Y-133608187D01*
X88006232Y-133586478D01*
X88128978Y-133463732D01*
X88150687Y-133446419D01*
X88297673Y-133354062D01*
X88322690Y-133342015D01*
X88486546Y-133284679D01*
X88513617Y-133278500D01*
X88686116Y-133259064D01*
X88713884Y-133259064D01*
X88886382Y-133278500D01*
G37*
G36*
X110486382Y-83678500D02*
G01*
X110513453Y-83684679D01*
X110677309Y-83742015D01*
X110702326Y-83754062D01*
X110849312Y-83846419D01*
X110871021Y-83863732D01*
X110993767Y-83986478D01*
X111011080Y-84008187D01*
X111103437Y-84155173D01*
X111115484Y-84180190D01*
X111172820Y-84344046D01*
X111178999Y-84371117D01*
X111199610Y-84554034D01*
X111200000Y-84560982D01*
X111200000Y-87754017D01*
X111199610Y-87760965D01*
X111178999Y-87943882D01*
X111172820Y-87970953D01*
X111115484Y-88134809D01*
X111103437Y-88159826D01*
X111011080Y-88306812D01*
X110993767Y-88328521D01*
X110871021Y-88451267D01*
X110849312Y-88468580D01*
X110702326Y-88560937D01*
X110677309Y-88572984D01*
X110513453Y-88630320D01*
X110486382Y-88636499D01*
X110313884Y-88655935D01*
X110286116Y-88655935D01*
X110113617Y-88636499D01*
X110086546Y-88630320D01*
X109922690Y-88572984D01*
X109897673Y-88560937D01*
X109750687Y-88468580D01*
X109728978Y-88451267D01*
X109606232Y-88328521D01*
X109588919Y-88306812D01*
X109496562Y-88159826D01*
X109484515Y-88134809D01*
X109427179Y-87970953D01*
X109421000Y-87943881D01*
X109400390Y-87760964D01*
X109400000Y-87754017D01*
X109400000Y-84560982D01*
X109400390Y-84554035D01*
X109421000Y-84371118D01*
X109427179Y-84344046D01*
X109484515Y-84180190D01*
X109496562Y-84155173D01*
X109588919Y-84008187D01*
X109606232Y-83986478D01*
X109728978Y-83863732D01*
X109750687Y-83846419D01*
X109897673Y-83754062D01*
X109922690Y-83742015D01*
X110086546Y-83684679D01*
X110113617Y-83678500D01*
X110286116Y-83659064D01*
X110313884Y-83659064D01*
X110486382Y-83678500D01*
G37*
G36*
X82286382Y-83678500D02*
G01*
X82313453Y-83684679D01*
X82477309Y-83742015D01*
X82502326Y-83754062D01*
X82649312Y-83846419D01*
X82671021Y-83863732D01*
X82793767Y-83986478D01*
X82811080Y-84008187D01*
X82903437Y-84155173D01*
X82915484Y-84180190D01*
X82972820Y-84344046D01*
X82978999Y-84371117D01*
X82999610Y-84554034D01*
X83000000Y-84560982D01*
X83000000Y-87754017D01*
X82999610Y-87760965D01*
X82978999Y-87943882D01*
X82972820Y-87970953D01*
X82915484Y-88134809D01*
X82903437Y-88159826D01*
X82811080Y-88306812D01*
X82793767Y-88328521D01*
X82671021Y-88451267D01*
X82649312Y-88468580D01*
X82502326Y-88560937D01*
X82477309Y-88572984D01*
X82313453Y-88630320D01*
X82286382Y-88636499D01*
X82113884Y-88655935D01*
X82086116Y-88655935D01*
X81913617Y-88636499D01*
X81886546Y-88630320D01*
X81722690Y-88572984D01*
X81697673Y-88560937D01*
X81550687Y-88468580D01*
X81528978Y-88451267D01*
X81406232Y-88328521D01*
X81388919Y-88306812D01*
X81296562Y-88159826D01*
X81284515Y-88134809D01*
X81227179Y-87970953D01*
X81221000Y-87943881D01*
X81200390Y-87760964D01*
X81200000Y-87754017D01*
X81200000Y-84560982D01*
X81200390Y-84554035D01*
X81221000Y-84371118D01*
X81227179Y-84344046D01*
X81284515Y-84180190D01*
X81296562Y-84155173D01*
X81388919Y-84008187D01*
X81406232Y-83986478D01*
X81528978Y-83863732D01*
X81550687Y-83846419D01*
X81697673Y-83754062D01*
X81722690Y-83742015D01*
X81886546Y-83684679D01*
X81913617Y-83678500D01*
X82086116Y-83659064D01*
X82113884Y-83659064D01*
X82286382Y-83678500D01*
G37*
G36*
X131186382Y-108478500D02*
G01*
X131213453Y-108484679D01*
X131377309Y-108542015D01*
X131402326Y-108554062D01*
X131549312Y-108646419D01*
X131571021Y-108663732D01*
X131693767Y-108786478D01*
X131711080Y-108808187D01*
X131803437Y-108955173D01*
X131815484Y-108980190D01*
X131872820Y-109144046D01*
X131878999Y-109171117D01*
X131899610Y-109354034D01*
X131900000Y-109360982D01*
X131900000Y-112554017D01*
X131899610Y-112560965D01*
X131878999Y-112743882D01*
X131872820Y-112770953D01*
X131815484Y-112934809D01*
X131803437Y-112959826D01*
X131711080Y-113106812D01*
X131693767Y-113128521D01*
X131571021Y-113251267D01*
X131549312Y-113268580D01*
X131402326Y-113360937D01*
X131377309Y-113372984D01*
X131213453Y-113430320D01*
X131186382Y-113436499D01*
X131013884Y-113455935D01*
X130986116Y-113455935D01*
X130813617Y-113436499D01*
X130786546Y-113430320D01*
X130622690Y-113372984D01*
X130597673Y-113360937D01*
X130450687Y-113268580D01*
X130428978Y-113251267D01*
X130306232Y-113128521D01*
X130288919Y-113106812D01*
X130196562Y-112959826D01*
X130184515Y-112934809D01*
X130127179Y-112770953D01*
X130121000Y-112743881D01*
X130100390Y-112560964D01*
X130100000Y-112554017D01*
X130100000Y-109360982D01*
X130100390Y-109354035D01*
X130121000Y-109171118D01*
X130127179Y-109144046D01*
X130184515Y-108980190D01*
X130196562Y-108955173D01*
X130288919Y-108808187D01*
X130306232Y-108786478D01*
X130428978Y-108663732D01*
X130450687Y-108646419D01*
X130597673Y-108554062D01*
X130622690Y-108542015D01*
X130786546Y-108484679D01*
X130813617Y-108478500D01*
X130986116Y-108459064D01*
X131013884Y-108459064D01*
X131186382Y-108478500D01*
G37*
G36*
X159386382Y-58878500D02*
G01*
X159413453Y-58884679D01*
X159577309Y-58942015D01*
X159602326Y-58954062D01*
X159749312Y-59046419D01*
X159771021Y-59063732D01*
X159893767Y-59186478D01*
X159911080Y-59208187D01*
X160003437Y-59355173D01*
X160015484Y-59380190D01*
X160072820Y-59544046D01*
X160078999Y-59571117D01*
X160099610Y-59754034D01*
X160100000Y-59760982D01*
X160100000Y-62954017D01*
X160099610Y-62960965D01*
X160078999Y-63143882D01*
X160072820Y-63170953D01*
X160015484Y-63334809D01*
X160003437Y-63359826D01*
X159911080Y-63506812D01*
X159893767Y-63528521D01*
X159771021Y-63651267D01*
X159749312Y-63668580D01*
X159602326Y-63760937D01*
X159577309Y-63772984D01*
X159413453Y-63830320D01*
X159386382Y-63836499D01*
X159213884Y-63855935D01*
X159186116Y-63855935D01*
X159013617Y-63836499D01*
X158986546Y-63830320D01*
X158822690Y-63772984D01*
X158797673Y-63760937D01*
X158650687Y-63668580D01*
X158628978Y-63651267D01*
X158506232Y-63528521D01*
X158488919Y-63506812D01*
X158396562Y-63359826D01*
X158384515Y-63334809D01*
X158327179Y-63170953D01*
X158321000Y-63143881D01*
X158300390Y-62960964D01*
X158300000Y-62954017D01*
X158300000Y-59760982D01*
X158300390Y-59754035D01*
X158321000Y-59571118D01*
X158327179Y-59544046D01*
X158384515Y-59380190D01*
X158396562Y-59355173D01*
X158488919Y-59208187D01*
X158506232Y-59186478D01*
X158628978Y-59063732D01*
X158650687Y-59046419D01*
X158797673Y-58954062D01*
X158822690Y-58942015D01*
X158986546Y-58884679D01*
X159013617Y-58878500D01*
X159186116Y-58859064D01*
X159213884Y-58859064D01*
X159386382Y-58878500D01*
G37*
G36*
X102986382Y-108478500D02*
G01*
X103013453Y-108484679D01*
X103177309Y-108542015D01*
X103202326Y-108554062D01*
X103349312Y-108646419D01*
X103371021Y-108663732D01*
X103493767Y-108786478D01*
X103511080Y-108808187D01*
X103603437Y-108955173D01*
X103615484Y-108980190D01*
X103672820Y-109144046D01*
X103678999Y-109171117D01*
X103699610Y-109354034D01*
X103700000Y-109360982D01*
X103700000Y-112554017D01*
X103699610Y-112560965D01*
X103678999Y-112743882D01*
X103672820Y-112770953D01*
X103615484Y-112934809D01*
X103603437Y-112959826D01*
X103511080Y-113106812D01*
X103493767Y-113128521D01*
X103371021Y-113251267D01*
X103349312Y-113268580D01*
X103202326Y-113360937D01*
X103177309Y-113372984D01*
X103013453Y-113430320D01*
X102986382Y-113436499D01*
X102813884Y-113455935D01*
X102786116Y-113455935D01*
X102613617Y-113436499D01*
X102586546Y-113430320D01*
X102422690Y-113372984D01*
X102397673Y-113360937D01*
X102250687Y-113268580D01*
X102228978Y-113251267D01*
X102106232Y-113128521D01*
X102088919Y-113106812D01*
X101996562Y-112959826D01*
X101984515Y-112934809D01*
X101927179Y-112770953D01*
X101921000Y-112743881D01*
X101900390Y-112560964D01*
X101900000Y-112554017D01*
X101900000Y-109360982D01*
X101900390Y-109354035D01*
X101921000Y-109171118D01*
X101927179Y-109144046D01*
X101984515Y-108980190D01*
X101996562Y-108955173D01*
X102088919Y-108808187D01*
X102106232Y-108786478D01*
X102228978Y-108663732D01*
X102250687Y-108646419D01*
X102397673Y-108554062D01*
X102422690Y-108542015D01*
X102586546Y-108484679D01*
X102613617Y-108478500D01*
X102786116Y-108459064D01*
X102813884Y-108459064D01*
X102986382Y-108478500D01*
G37*
G36*
X145286382Y-83678500D02*
G01*
X145313453Y-83684679D01*
X145477309Y-83742015D01*
X145502326Y-83754062D01*
X145649312Y-83846419D01*
X145671021Y-83863732D01*
X145793767Y-83986478D01*
X145811080Y-84008187D01*
X145903437Y-84155173D01*
X145915484Y-84180190D01*
X145972820Y-84344046D01*
X145978999Y-84371117D01*
X145999610Y-84554034D01*
X146000000Y-84560982D01*
X146000000Y-87754017D01*
X145999610Y-87760965D01*
X145978999Y-87943882D01*
X145972820Y-87970953D01*
X145915484Y-88134809D01*
X145903437Y-88159826D01*
X145811080Y-88306812D01*
X145793767Y-88328521D01*
X145671021Y-88451267D01*
X145649312Y-88468580D01*
X145502326Y-88560937D01*
X145477309Y-88572984D01*
X145313453Y-88630320D01*
X145286382Y-88636499D01*
X145113884Y-88655935D01*
X145086116Y-88655935D01*
X144913617Y-88636499D01*
X144886546Y-88630320D01*
X144722690Y-88572984D01*
X144697673Y-88560937D01*
X144550687Y-88468580D01*
X144528978Y-88451267D01*
X144406232Y-88328521D01*
X144388919Y-88306812D01*
X144296562Y-88159826D01*
X144284515Y-88134809D01*
X144227179Y-87970953D01*
X144221000Y-87943881D01*
X144200390Y-87760964D01*
X144200000Y-87754017D01*
X144200000Y-84560982D01*
X144200390Y-84554035D01*
X144221000Y-84371118D01*
X144227179Y-84344046D01*
X144284515Y-84180190D01*
X144296562Y-84155173D01*
X144388919Y-84008187D01*
X144406232Y-83986478D01*
X144528978Y-83863732D01*
X144550687Y-83846419D01*
X144697673Y-83754062D01*
X144722690Y-83742015D01*
X144886546Y-83684679D01*
X144913617Y-83678500D01*
X145086116Y-83659064D01*
X145113884Y-83659064D01*
X145286382Y-83678500D01*
G37*
G36*
X82286382Y-108478500D02*
G01*
X82313453Y-108484679D01*
X82477309Y-108542015D01*
X82502326Y-108554062D01*
X82649312Y-108646419D01*
X82671021Y-108663732D01*
X82793767Y-108786478D01*
X82811080Y-108808187D01*
X82903437Y-108955173D01*
X82915484Y-108980190D01*
X82972820Y-109144046D01*
X82978999Y-109171117D01*
X82999610Y-109354034D01*
X83000000Y-109360982D01*
X83000000Y-112554017D01*
X82999610Y-112560965D01*
X82978999Y-112743882D01*
X82972820Y-112770953D01*
X82915484Y-112934809D01*
X82903437Y-112959826D01*
X82811080Y-113106812D01*
X82793767Y-113128521D01*
X82671021Y-113251267D01*
X82649312Y-113268580D01*
X82502326Y-113360937D01*
X82477309Y-113372984D01*
X82313453Y-113430320D01*
X82286382Y-113436499D01*
X82113884Y-113455935D01*
X82086116Y-113455935D01*
X81913617Y-113436499D01*
X81886546Y-113430320D01*
X81722690Y-113372984D01*
X81697673Y-113360937D01*
X81550687Y-113268580D01*
X81528978Y-113251267D01*
X81406232Y-113128521D01*
X81388919Y-113106812D01*
X81296562Y-112959826D01*
X81284515Y-112934809D01*
X81227179Y-112770953D01*
X81221000Y-112743881D01*
X81200390Y-112560964D01*
X81200000Y-112554017D01*
X81200000Y-109360982D01*
X81200390Y-109354035D01*
X81221000Y-109171118D01*
X81227179Y-109144046D01*
X81284515Y-108980190D01*
X81296562Y-108955173D01*
X81388919Y-108808187D01*
X81406232Y-108786478D01*
X81528978Y-108663732D01*
X81550687Y-108646419D01*
X81697673Y-108554062D01*
X81722690Y-108542015D01*
X81886546Y-108484679D01*
X81913617Y-108478500D01*
X82086116Y-108459064D01*
X82113884Y-108459064D01*
X82286382Y-108478500D01*
G37*
G36*
X131186382Y-133278500D02*
G01*
X131213453Y-133284679D01*
X131377309Y-133342015D01*
X131402326Y-133354062D01*
X131549312Y-133446419D01*
X131571021Y-133463732D01*
X131693767Y-133586478D01*
X131711080Y-133608187D01*
X131803437Y-133755173D01*
X131815484Y-133780190D01*
X131872820Y-133944046D01*
X131878999Y-133971117D01*
X131899610Y-134154034D01*
X131900000Y-134160982D01*
X131900000Y-137354017D01*
X131899610Y-137360965D01*
X131878999Y-137543882D01*
X131872820Y-137570953D01*
X131815484Y-137734809D01*
X131803437Y-137759826D01*
X131711080Y-137906812D01*
X131693767Y-137928521D01*
X131571021Y-138051267D01*
X131549312Y-138068580D01*
X131402326Y-138160937D01*
X131377309Y-138172984D01*
X131213453Y-138230320D01*
X131186382Y-138236499D01*
X131013884Y-138255935D01*
X130986116Y-138255935D01*
X130813617Y-138236499D01*
X130786546Y-138230320D01*
X130622690Y-138172984D01*
X130597673Y-138160937D01*
X130450687Y-138068580D01*
X130428978Y-138051267D01*
X130306232Y-137928521D01*
X130288919Y-137906812D01*
X130196562Y-137759826D01*
X130184515Y-137734809D01*
X130127179Y-137570953D01*
X130121000Y-137543881D01*
X130100390Y-137360964D01*
X130100000Y-137354017D01*
X130100000Y-134160982D01*
X130100390Y-134154035D01*
X130121000Y-133971118D01*
X130127179Y-133944046D01*
X130184515Y-133780190D01*
X130196562Y-133755173D01*
X130288919Y-133608187D01*
X130306232Y-133586478D01*
X130428978Y-133463732D01*
X130450687Y-133446419D01*
X130597673Y-133354062D01*
X130622690Y-133342015D01*
X130786546Y-133284679D01*
X130813617Y-133278500D01*
X130986116Y-133259064D01*
X131013884Y-133259064D01*
X131186382Y-133278500D01*
G37*
G36*
X96386382Y-58878500D02*
G01*
X96413453Y-58884679D01*
X96577309Y-58942015D01*
X96602326Y-58954062D01*
X96749312Y-59046419D01*
X96771021Y-59063732D01*
X96893767Y-59186478D01*
X96911080Y-59208187D01*
X97003437Y-59355173D01*
X97015484Y-59380190D01*
X97072820Y-59544046D01*
X97078999Y-59571117D01*
X97099610Y-59754034D01*
X97100000Y-59760982D01*
X97100000Y-62954017D01*
X97099610Y-62960965D01*
X97078999Y-63143882D01*
X97072820Y-63170953D01*
X97015484Y-63334809D01*
X97003437Y-63359826D01*
X96911080Y-63506812D01*
X96893767Y-63528521D01*
X96771021Y-63651267D01*
X96749312Y-63668580D01*
X96602326Y-63760937D01*
X96577309Y-63772984D01*
X96413453Y-63830320D01*
X96386382Y-63836499D01*
X96213884Y-63855935D01*
X96186116Y-63855935D01*
X96013617Y-63836499D01*
X95986546Y-63830320D01*
X95822690Y-63772984D01*
X95797673Y-63760937D01*
X95650687Y-63668580D01*
X95628978Y-63651267D01*
X95506232Y-63528521D01*
X95488919Y-63506812D01*
X95396562Y-63359826D01*
X95384515Y-63334809D01*
X95327179Y-63170953D01*
X95321000Y-63143881D01*
X95300390Y-62960964D01*
X95300000Y-62954017D01*
X95300000Y-59760982D01*
X95300390Y-59754035D01*
X95321000Y-59571118D01*
X95327179Y-59544046D01*
X95384515Y-59380190D01*
X95396562Y-59355173D01*
X95488919Y-59208187D01*
X95506232Y-59186478D01*
X95628978Y-59063732D01*
X95650687Y-59046419D01*
X95797673Y-58954062D01*
X95822690Y-58942015D01*
X95986546Y-58884679D01*
X96013617Y-58878500D01*
X96186116Y-58859064D01*
X96213884Y-58859064D01*
X96386382Y-58878500D01*
G37*
G36*
X138686382Y-133278500D02*
G01*
X138713453Y-133284679D01*
X138877309Y-133342015D01*
X138902326Y-133354062D01*
X139049312Y-133446419D01*
X139071021Y-133463732D01*
X139193767Y-133586478D01*
X139211080Y-133608187D01*
X139303437Y-133755173D01*
X139315484Y-133780190D01*
X139372820Y-133944046D01*
X139378999Y-133971117D01*
X139399610Y-134154034D01*
X139400000Y-134160982D01*
X139400000Y-137354017D01*
X139399610Y-137360965D01*
X139378999Y-137543882D01*
X139372820Y-137570953D01*
X139315484Y-137734809D01*
X139303437Y-137759826D01*
X139211080Y-137906812D01*
X139193767Y-137928521D01*
X139071021Y-138051267D01*
X139049312Y-138068580D01*
X138902326Y-138160937D01*
X138877309Y-138172984D01*
X138713453Y-138230320D01*
X138686382Y-138236499D01*
X138513884Y-138255935D01*
X138486116Y-138255935D01*
X138313617Y-138236499D01*
X138286546Y-138230320D01*
X138122690Y-138172984D01*
X138097673Y-138160937D01*
X137950687Y-138068580D01*
X137928978Y-138051267D01*
X137806232Y-137928521D01*
X137788919Y-137906812D01*
X137696562Y-137759826D01*
X137684515Y-137734809D01*
X137627179Y-137570953D01*
X137621000Y-137543881D01*
X137600390Y-137360964D01*
X137600000Y-137354017D01*
X137600000Y-134160982D01*
X137600390Y-134154035D01*
X137621000Y-133971118D01*
X137627179Y-133944046D01*
X137684515Y-133780190D01*
X137696562Y-133755173D01*
X137788919Y-133608187D01*
X137806232Y-133586478D01*
X137928978Y-133463732D01*
X137950687Y-133446419D01*
X138097673Y-133354062D01*
X138122690Y-133342015D01*
X138286546Y-133284679D01*
X138313617Y-133278500D01*
X138486116Y-133259064D01*
X138513884Y-133259064D01*
X138686382Y-133278500D01*
G37*
G36*
X138686382Y-58878500D02*
G01*
X138713453Y-58884679D01*
X138877309Y-58942015D01*
X138902326Y-58954062D01*
X139049312Y-59046419D01*
X139071021Y-59063732D01*
X139193767Y-59186478D01*
X139211080Y-59208187D01*
X139303437Y-59355173D01*
X139315484Y-59380190D01*
X139372820Y-59544046D01*
X139378999Y-59571117D01*
X139399610Y-59754034D01*
X139400000Y-59760982D01*
X139400000Y-62954017D01*
X139399610Y-62960965D01*
X139378999Y-63143882D01*
X139372820Y-63170953D01*
X139315484Y-63334809D01*
X139303437Y-63359826D01*
X139211080Y-63506812D01*
X139193767Y-63528521D01*
X139071021Y-63651267D01*
X139049312Y-63668580D01*
X138902326Y-63760937D01*
X138877309Y-63772984D01*
X138713453Y-63830320D01*
X138686382Y-63836499D01*
X138513884Y-63855935D01*
X138486116Y-63855935D01*
X138313617Y-63836499D01*
X138286546Y-63830320D01*
X138122690Y-63772984D01*
X138097673Y-63760937D01*
X137950687Y-63668580D01*
X137928978Y-63651267D01*
X137806232Y-63528521D01*
X137788919Y-63506812D01*
X137696562Y-63359826D01*
X137684515Y-63334809D01*
X137627179Y-63170953D01*
X137621000Y-63143881D01*
X137600390Y-62960964D01*
X137600000Y-62954017D01*
X137600000Y-59760982D01*
X137600390Y-59754035D01*
X137621000Y-59571118D01*
X137627179Y-59544046D01*
X137684515Y-59380190D01*
X137696562Y-59355173D01*
X137788919Y-59208187D01*
X137806232Y-59186478D01*
X137928978Y-59063732D01*
X137950687Y-59046419D01*
X138097673Y-58954062D01*
X138122690Y-58942015D01*
X138286546Y-58884679D01*
X138313617Y-58878500D01*
X138486116Y-58859064D01*
X138513884Y-58859064D01*
X138686382Y-58878500D01*
G37*
G36*
X117086382Y-58878500D02*
G01*
X117113453Y-58884679D01*
X117277309Y-58942015D01*
X117302326Y-58954062D01*
X117449312Y-59046419D01*
X117471021Y-59063732D01*
X117593767Y-59186478D01*
X117611080Y-59208187D01*
X117703437Y-59355173D01*
X117715484Y-59380190D01*
X117772820Y-59544046D01*
X117778999Y-59571117D01*
X117799610Y-59754034D01*
X117800000Y-59760982D01*
X117800000Y-62954017D01*
X117799610Y-62960965D01*
X117778999Y-63143882D01*
X117772820Y-63170953D01*
X117715484Y-63334809D01*
X117703437Y-63359826D01*
X117611080Y-63506812D01*
X117593767Y-63528521D01*
X117471021Y-63651267D01*
X117449312Y-63668580D01*
X117302326Y-63760937D01*
X117277309Y-63772984D01*
X117113453Y-63830320D01*
X117086382Y-63836499D01*
X116913884Y-63855935D01*
X116886116Y-63855935D01*
X116713617Y-63836499D01*
X116686546Y-63830320D01*
X116522690Y-63772984D01*
X116497673Y-63760937D01*
X116350687Y-63668580D01*
X116328978Y-63651267D01*
X116206232Y-63528521D01*
X116188919Y-63506812D01*
X116096562Y-63359826D01*
X116084515Y-63334809D01*
X116027179Y-63170953D01*
X116021000Y-63143881D01*
X116000390Y-62960964D01*
X116000000Y-62954017D01*
X116000000Y-59760982D01*
X116000390Y-59754035D01*
X116021000Y-59571118D01*
X116027179Y-59544046D01*
X116084515Y-59380190D01*
X116096562Y-59355173D01*
X116188919Y-59208187D01*
X116206232Y-59186478D01*
X116328978Y-59063732D01*
X116350687Y-59046419D01*
X116497673Y-58954062D01*
X116522690Y-58942015D01*
X116686546Y-58884679D01*
X116713617Y-58878500D01*
X116886116Y-58859064D01*
X116913884Y-58859064D01*
X117086382Y-58878500D01*
G37*
G36*
X152786382Y-83678500D02*
G01*
X152813453Y-83684679D01*
X152977309Y-83742015D01*
X153002326Y-83754062D01*
X153149312Y-83846419D01*
X153171021Y-83863732D01*
X153293767Y-83986478D01*
X153311080Y-84008187D01*
X153403437Y-84155173D01*
X153415484Y-84180190D01*
X153472820Y-84344046D01*
X153478999Y-84371117D01*
X153499610Y-84554034D01*
X153500000Y-84560982D01*
X153500000Y-87754017D01*
X153499610Y-87760965D01*
X153478999Y-87943882D01*
X153472820Y-87970953D01*
X153415484Y-88134809D01*
X153403437Y-88159826D01*
X153311080Y-88306812D01*
X153293767Y-88328521D01*
X153171021Y-88451267D01*
X153149312Y-88468580D01*
X153002326Y-88560937D01*
X152977309Y-88572984D01*
X152813453Y-88630320D01*
X152786382Y-88636499D01*
X152613884Y-88655935D01*
X152586116Y-88655935D01*
X152413617Y-88636499D01*
X152386546Y-88630320D01*
X152222690Y-88572984D01*
X152197673Y-88560937D01*
X152050687Y-88468580D01*
X152028978Y-88451267D01*
X151906232Y-88328521D01*
X151888919Y-88306812D01*
X151796562Y-88159826D01*
X151784515Y-88134809D01*
X151727179Y-87970953D01*
X151721000Y-87943881D01*
X151700390Y-87760964D01*
X151700000Y-87754017D01*
X151700000Y-84560982D01*
X151700390Y-84554035D01*
X151721000Y-84371118D01*
X151727179Y-84344046D01*
X151784515Y-84180190D01*
X151796562Y-84155173D01*
X151888919Y-84008187D01*
X151906232Y-83986478D01*
X152028978Y-83863732D01*
X152050687Y-83846419D01*
X152197673Y-83754062D01*
X152222690Y-83742015D01*
X152386546Y-83684679D01*
X152413617Y-83678500D01*
X152586116Y-83659064D01*
X152613884Y-83659064D01*
X152786382Y-83678500D01*
G37*
G36*
X102986382Y-133278500D02*
G01*
X103013453Y-133284679D01*
X103177309Y-133342015D01*
X103202326Y-133354062D01*
X103349312Y-133446419D01*
X103371021Y-133463732D01*
X103493767Y-133586478D01*
X103511080Y-133608187D01*
X103603437Y-133755173D01*
X103615484Y-133780190D01*
X103672820Y-133944046D01*
X103678999Y-133971117D01*
X103699610Y-134154034D01*
X103700000Y-134160982D01*
X103700000Y-137354017D01*
X103699610Y-137360965D01*
X103678999Y-137543882D01*
X103672820Y-137570953D01*
X103615484Y-137734809D01*
X103603437Y-137759826D01*
X103511080Y-137906812D01*
X103493767Y-137928521D01*
X103371021Y-138051267D01*
X103349312Y-138068580D01*
X103202326Y-138160937D01*
X103177309Y-138172984D01*
X103013453Y-138230320D01*
X102986382Y-138236499D01*
X102813884Y-138255935D01*
X102786116Y-138255935D01*
X102613617Y-138236499D01*
X102586546Y-138230320D01*
X102422690Y-138172984D01*
X102397673Y-138160937D01*
X102250687Y-138068580D01*
X102228978Y-138051267D01*
X102106232Y-137928521D01*
X102088919Y-137906812D01*
X101996562Y-137759826D01*
X101984515Y-137734809D01*
X101927179Y-137570953D01*
X101921000Y-137543881D01*
X101900390Y-137360964D01*
X101900000Y-137354017D01*
X101900000Y-134160982D01*
X101900390Y-134154035D01*
X101921000Y-133971118D01*
X101927179Y-133944046D01*
X101984515Y-133780190D01*
X101996562Y-133755173D01*
X102088919Y-133608187D01*
X102106232Y-133586478D01*
X102228978Y-133463732D01*
X102250687Y-133446419D01*
X102397673Y-133354062D01*
X102422690Y-133342015D01*
X102586546Y-133284679D01*
X102613617Y-133278500D01*
X102786116Y-133259064D01*
X102813884Y-133259064D01*
X102986382Y-133278500D01*
G37*
G36*
X124586382Y-108478500D02*
G01*
X124613453Y-108484679D01*
X124777309Y-108542015D01*
X124802326Y-108554062D01*
X124949312Y-108646419D01*
X124971021Y-108663732D01*
X125093767Y-108786478D01*
X125111080Y-108808187D01*
X125203437Y-108955173D01*
X125215484Y-108980190D01*
X125272820Y-109144046D01*
X125278999Y-109171117D01*
X125299610Y-109354034D01*
X125300000Y-109360982D01*
X125300000Y-112554017D01*
X125299610Y-112560965D01*
X125278999Y-112743882D01*
X125272820Y-112770953D01*
X125215484Y-112934809D01*
X125203437Y-112959826D01*
X125111080Y-113106812D01*
X125093767Y-113128521D01*
X124971021Y-113251267D01*
X124949312Y-113268580D01*
X124802326Y-113360937D01*
X124777309Y-113372984D01*
X124613453Y-113430320D01*
X124586382Y-113436499D01*
X124413884Y-113455935D01*
X124386116Y-113455935D01*
X124213617Y-113436499D01*
X124186546Y-113430320D01*
X124022690Y-113372984D01*
X123997673Y-113360937D01*
X123850687Y-113268580D01*
X123828978Y-113251267D01*
X123706232Y-113128521D01*
X123688919Y-113106812D01*
X123596562Y-112959826D01*
X123584515Y-112934809D01*
X123527179Y-112770953D01*
X123521000Y-112743881D01*
X123500390Y-112560964D01*
X123500000Y-112554017D01*
X123500000Y-109360982D01*
X123500390Y-109354035D01*
X123521000Y-109171118D01*
X123527179Y-109144046D01*
X123584515Y-108980190D01*
X123596562Y-108955173D01*
X123688919Y-108808187D01*
X123706232Y-108786478D01*
X123828978Y-108663732D01*
X123850687Y-108646419D01*
X123997673Y-108554062D01*
X124022690Y-108542015D01*
X124186546Y-108484679D01*
X124213617Y-108478500D01*
X124386116Y-108459064D01*
X124413884Y-108459064D01*
X124586382Y-108478500D01*
G37*
G36*
X88886382Y-108478500D02*
G01*
X88913453Y-108484679D01*
X89077309Y-108542015D01*
X89102326Y-108554062D01*
X89249312Y-108646419D01*
X89271021Y-108663732D01*
X89393767Y-108786478D01*
X89411080Y-108808187D01*
X89503437Y-108955173D01*
X89515484Y-108980190D01*
X89572820Y-109144046D01*
X89578999Y-109171117D01*
X89599610Y-109354034D01*
X89600000Y-109360982D01*
X89600000Y-112554017D01*
X89599610Y-112560965D01*
X89578999Y-112743882D01*
X89572820Y-112770953D01*
X89515484Y-112934809D01*
X89503437Y-112959826D01*
X89411080Y-113106812D01*
X89393767Y-113128521D01*
X89271021Y-113251267D01*
X89249312Y-113268580D01*
X89102326Y-113360937D01*
X89077309Y-113372984D01*
X88913453Y-113430320D01*
X88886382Y-113436499D01*
X88713884Y-113455935D01*
X88686116Y-113455935D01*
X88513617Y-113436499D01*
X88486546Y-113430320D01*
X88322690Y-113372984D01*
X88297673Y-113360937D01*
X88150687Y-113268580D01*
X88128978Y-113251267D01*
X88006232Y-113128521D01*
X87988919Y-113106812D01*
X87896562Y-112959826D01*
X87884515Y-112934809D01*
X87827179Y-112770953D01*
X87821000Y-112743881D01*
X87800390Y-112560964D01*
X87800000Y-112554017D01*
X87800000Y-109360982D01*
X87800390Y-109354035D01*
X87821000Y-109171118D01*
X87827179Y-109144046D01*
X87884515Y-108980190D01*
X87896562Y-108955173D01*
X87988919Y-108808187D01*
X88006232Y-108786478D01*
X88128978Y-108663732D01*
X88150687Y-108646419D01*
X88297673Y-108554062D01*
X88322690Y-108542015D01*
X88486546Y-108484679D01*
X88513617Y-108478500D01*
X88686116Y-108459064D01*
X88713884Y-108459064D01*
X88886382Y-108478500D01*
G37*
G36*
X88886382Y-83678500D02*
G01*
X88913453Y-83684679D01*
X89077309Y-83742015D01*
X89102326Y-83754062D01*
X89249312Y-83846419D01*
X89271021Y-83863732D01*
X89393767Y-83986478D01*
X89411080Y-84008187D01*
X89503437Y-84155173D01*
X89515484Y-84180190D01*
X89572820Y-84344046D01*
X89578999Y-84371117D01*
X89599610Y-84554034D01*
X89600000Y-84560982D01*
X89600000Y-87754017D01*
X89599610Y-87760965D01*
X89578999Y-87943882D01*
X89572820Y-87970953D01*
X89515484Y-88134809D01*
X89503437Y-88159826D01*
X89411080Y-88306812D01*
X89393767Y-88328521D01*
X89271021Y-88451267D01*
X89249312Y-88468580D01*
X89102326Y-88560937D01*
X89077309Y-88572984D01*
X88913453Y-88630320D01*
X88886382Y-88636499D01*
X88713884Y-88655935D01*
X88686116Y-88655935D01*
X88513617Y-88636499D01*
X88486546Y-88630320D01*
X88322690Y-88572984D01*
X88297673Y-88560937D01*
X88150687Y-88468580D01*
X88128978Y-88451267D01*
X88006232Y-88328521D01*
X87988919Y-88306812D01*
X87896562Y-88159826D01*
X87884515Y-88134809D01*
X87827179Y-87970953D01*
X87821000Y-87943881D01*
X87800390Y-87760964D01*
X87800000Y-87754017D01*
X87800000Y-84560982D01*
X87800390Y-84554035D01*
X87821000Y-84371118D01*
X87827179Y-84344046D01*
X87884515Y-84180190D01*
X87896562Y-84155173D01*
X87988919Y-84008187D01*
X88006232Y-83986478D01*
X88128978Y-83863732D01*
X88150687Y-83846419D01*
X88297673Y-83754062D01*
X88322690Y-83742015D01*
X88486546Y-83684679D01*
X88513617Y-83678500D01*
X88686116Y-83659064D01*
X88713884Y-83659064D01*
X88886382Y-83678500D01*
G37*
G36*
X82286382Y-133278500D02*
G01*
X82313453Y-133284679D01*
X82477309Y-133342015D01*
X82502326Y-133354062D01*
X82649312Y-133446419D01*
X82671021Y-133463732D01*
X82793767Y-133586478D01*
X82811080Y-133608187D01*
X82903437Y-133755173D01*
X82915484Y-133780190D01*
X82972820Y-133944046D01*
X82978999Y-133971117D01*
X82999610Y-134154034D01*
X83000000Y-134160982D01*
X83000000Y-137354017D01*
X82999610Y-137360965D01*
X82978999Y-137543882D01*
X82972820Y-137570953D01*
X82915484Y-137734809D01*
X82903437Y-137759826D01*
X82811080Y-137906812D01*
X82793767Y-137928521D01*
X82671021Y-138051267D01*
X82649312Y-138068580D01*
X82502326Y-138160937D01*
X82477309Y-138172984D01*
X82313453Y-138230320D01*
X82286382Y-138236499D01*
X82113884Y-138255935D01*
X82086116Y-138255935D01*
X81913617Y-138236499D01*
X81886546Y-138230320D01*
X81722690Y-138172984D01*
X81697673Y-138160937D01*
X81550687Y-138068580D01*
X81528978Y-138051267D01*
X81406232Y-137928521D01*
X81388919Y-137906812D01*
X81296562Y-137759826D01*
X81284515Y-137734809D01*
X81227179Y-137570953D01*
X81221000Y-137543881D01*
X81200390Y-137360964D01*
X81200000Y-137354017D01*
X81200000Y-134160982D01*
X81200390Y-134154035D01*
X81221000Y-133971118D01*
X81227179Y-133944046D01*
X81284515Y-133780190D01*
X81296562Y-133755173D01*
X81388919Y-133608187D01*
X81406232Y-133586478D01*
X81528978Y-133463732D01*
X81550687Y-133446419D01*
X81697673Y-133354062D01*
X81722690Y-133342015D01*
X81886546Y-133284679D01*
X81913617Y-133278500D01*
X82086116Y-133259064D01*
X82113884Y-133259064D01*
X82286382Y-133278500D01*
G37*
G36*
X145286382Y-133278500D02*
G01*
X145313453Y-133284679D01*
X145477309Y-133342015D01*
X145502326Y-133354062D01*
X145649312Y-133446419D01*
X145671021Y-133463732D01*
X145793767Y-133586478D01*
X145811080Y-133608187D01*
X145903437Y-133755173D01*
X145915484Y-133780190D01*
X145972820Y-133944046D01*
X145978999Y-133971117D01*
X145999610Y-134154034D01*
X146000000Y-134160982D01*
X146000000Y-137354017D01*
X145999610Y-137360965D01*
X145978999Y-137543882D01*
X145972820Y-137570953D01*
X145915484Y-137734809D01*
X145903437Y-137759826D01*
X145811080Y-137906812D01*
X145793767Y-137928521D01*
X145671021Y-138051267D01*
X145649312Y-138068580D01*
X145502326Y-138160937D01*
X145477309Y-138172984D01*
X145313453Y-138230320D01*
X145286382Y-138236499D01*
X145113884Y-138255935D01*
X145086116Y-138255935D01*
X144913617Y-138236499D01*
X144886546Y-138230320D01*
X144722690Y-138172984D01*
X144697673Y-138160937D01*
X144550687Y-138068580D01*
X144528978Y-138051267D01*
X144406232Y-137928521D01*
X144388919Y-137906812D01*
X144296562Y-137759826D01*
X144284515Y-137734809D01*
X144227179Y-137570953D01*
X144221000Y-137543881D01*
X144200390Y-137360964D01*
X144200000Y-137354017D01*
X144200000Y-134160982D01*
X144200390Y-134154035D01*
X144221000Y-133971118D01*
X144227179Y-133944046D01*
X144284515Y-133780190D01*
X144296562Y-133755173D01*
X144388919Y-133608187D01*
X144406232Y-133586478D01*
X144528978Y-133463732D01*
X144550687Y-133446419D01*
X144697673Y-133354062D01*
X144722690Y-133342015D01*
X144886546Y-133284679D01*
X144913617Y-133278500D01*
X145086116Y-133259064D01*
X145113884Y-133259064D01*
X145286382Y-133278500D01*
G37*
G36*
X124586382Y-83678500D02*
G01*
X124613453Y-83684679D01*
X124777309Y-83742015D01*
X124802326Y-83754062D01*
X124949312Y-83846419D01*
X124971021Y-83863732D01*
X125093767Y-83986478D01*
X125111080Y-84008187D01*
X125203437Y-84155173D01*
X125215484Y-84180190D01*
X125272820Y-84344046D01*
X125278999Y-84371117D01*
X125299610Y-84554034D01*
X125300000Y-84560982D01*
X125300000Y-87754017D01*
X125299610Y-87760965D01*
X125278999Y-87943882D01*
X125272820Y-87970953D01*
X125215484Y-88134809D01*
X125203437Y-88159826D01*
X125111080Y-88306812D01*
X125093767Y-88328521D01*
X124971021Y-88451267D01*
X124949312Y-88468580D01*
X124802326Y-88560937D01*
X124777309Y-88572984D01*
X124613453Y-88630320D01*
X124586382Y-88636499D01*
X124413884Y-88655935D01*
X124386116Y-88655935D01*
X124213617Y-88636499D01*
X124186546Y-88630320D01*
X124022690Y-88572984D01*
X123997673Y-88560937D01*
X123850687Y-88468580D01*
X123828978Y-88451267D01*
X123706232Y-88328521D01*
X123688919Y-88306812D01*
X123596562Y-88159826D01*
X123584515Y-88134809D01*
X123527179Y-87970953D01*
X123521000Y-87943881D01*
X123500390Y-87760964D01*
X123500000Y-87754017D01*
X123500000Y-84560982D01*
X123500390Y-84554035D01*
X123521000Y-84371118D01*
X123527179Y-84344046D01*
X123584515Y-84180190D01*
X123596562Y-84155173D01*
X123688919Y-84008187D01*
X123706232Y-83986478D01*
X123828978Y-83863732D01*
X123850687Y-83846419D01*
X123997673Y-83754062D01*
X124022690Y-83742015D01*
X124186546Y-83684679D01*
X124213617Y-83678500D01*
X124386116Y-83659064D01*
X124413884Y-83659064D01*
X124586382Y-83678500D01*
G37*
G36*
X117086382Y-83678500D02*
G01*
X117113453Y-83684679D01*
X117277309Y-83742015D01*
X117302326Y-83754062D01*
X117449312Y-83846419D01*
X117471021Y-83863732D01*
X117593767Y-83986478D01*
X117611080Y-84008187D01*
X117703437Y-84155173D01*
X117715484Y-84180190D01*
X117772820Y-84344046D01*
X117778999Y-84371117D01*
X117799610Y-84554034D01*
X117800000Y-84560982D01*
X117800000Y-87754017D01*
X117799610Y-87760965D01*
X117778999Y-87943882D01*
X117772820Y-87970953D01*
X117715484Y-88134809D01*
X117703437Y-88159826D01*
X117611080Y-88306812D01*
X117593767Y-88328521D01*
X117471021Y-88451267D01*
X117449312Y-88468580D01*
X117302326Y-88560937D01*
X117277309Y-88572984D01*
X117113453Y-88630320D01*
X117086382Y-88636499D01*
X116913884Y-88655935D01*
X116886116Y-88655935D01*
X116713617Y-88636499D01*
X116686546Y-88630320D01*
X116522690Y-88572984D01*
X116497673Y-88560937D01*
X116350687Y-88468580D01*
X116328978Y-88451267D01*
X116206232Y-88328521D01*
X116188919Y-88306812D01*
X116096562Y-88159826D01*
X116084515Y-88134809D01*
X116027179Y-87970953D01*
X116021000Y-87943881D01*
X116000390Y-87760964D01*
X116000000Y-87754017D01*
X116000000Y-84560982D01*
X116000390Y-84554035D01*
X116021000Y-84371118D01*
X116027179Y-84344046D01*
X116084515Y-84180190D01*
X116096562Y-84155173D01*
X116188919Y-84008187D01*
X116206232Y-83986478D01*
X116328978Y-83863732D01*
X116350687Y-83846419D01*
X116497673Y-83754062D01*
X116522690Y-83742015D01*
X116686546Y-83684679D01*
X116713617Y-83678500D01*
X116886116Y-83659064D01*
X116913884Y-83659064D01*
X117086382Y-83678500D01*
G37*
G36*
X117086382Y-108478500D02*
G01*
X117113453Y-108484679D01*
X117277309Y-108542015D01*
X117302326Y-108554062D01*
X117449312Y-108646419D01*
X117471021Y-108663732D01*
X117593767Y-108786478D01*
X117611080Y-108808187D01*
X117703437Y-108955173D01*
X117715484Y-108980190D01*
X117772820Y-109144046D01*
X117778999Y-109171117D01*
X117799610Y-109354034D01*
X117800000Y-109360982D01*
X117800000Y-112554017D01*
X117799610Y-112560965D01*
X117778999Y-112743882D01*
X117772820Y-112770953D01*
X117715484Y-112934809D01*
X117703437Y-112959826D01*
X117611080Y-113106812D01*
X117593767Y-113128521D01*
X117471021Y-113251267D01*
X117449312Y-113268580D01*
X117302326Y-113360937D01*
X117277309Y-113372984D01*
X117113453Y-113430320D01*
X117086382Y-113436499D01*
X116913884Y-113455935D01*
X116886116Y-113455935D01*
X116713617Y-113436499D01*
X116686546Y-113430320D01*
X116522690Y-113372984D01*
X116497673Y-113360937D01*
X116350687Y-113268580D01*
X116328978Y-113251267D01*
X116206232Y-113128521D01*
X116188919Y-113106812D01*
X116096562Y-112959826D01*
X116084515Y-112934809D01*
X116027179Y-112770953D01*
X116021000Y-112743881D01*
X116000390Y-112560964D01*
X116000000Y-112554017D01*
X116000000Y-109360982D01*
X116000390Y-109354035D01*
X116021000Y-109171118D01*
X116027179Y-109144046D01*
X116084515Y-108980190D01*
X116096562Y-108955173D01*
X116188919Y-108808187D01*
X116206232Y-108786478D01*
X116328978Y-108663732D01*
X116350687Y-108646419D01*
X116497673Y-108554062D01*
X116522690Y-108542015D01*
X116686546Y-108484679D01*
X116713617Y-108478500D01*
X116886116Y-108459064D01*
X116913884Y-108459064D01*
X117086382Y-108478500D01*
G37*
G36*
X152786382Y-133278500D02*
G01*
X152813453Y-133284679D01*
X152977309Y-133342015D01*
X153002326Y-133354062D01*
X153149312Y-133446419D01*
X153171021Y-133463732D01*
X153293767Y-133586478D01*
X153311080Y-133608187D01*
X153403437Y-133755173D01*
X153415484Y-133780190D01*
X153472820Y-133944046D01*
X153478999Y-133971117D01*
X153499610Y-134154034D01*
X153500000Y-134160982D01*
X153500000Y-137354017D01*
X153499610Y-137360965D01*
X153478999Y-137543882D01*
X153472820Y-137570953D01*
X153415484Y-137734809D01*
X153403437Y-137759826D01*
X153311080Y-137906812D01*
X153293767Y-137928521D01*
X153171021Y-138051267D01*
X153149312Y-138068580D01*
X153002326Y-138160937D01*
X152977309Y-138172984D01*
X152813453Y-138230320D01*
X152786382Y-138236499D01*
X152613884Y-138255935D01*
X152586116Y-138255935D01*
X152413617Y-138236499D01*
X152386546Y-138230320D01*
X152222690Y-138172984D01*
X152197673Y-138160937D01*
X152050687Y-138068580D01*
X152028978Y-138051267D01*
X151906232Y-137928521D01*
X151888919Y-137906812D01*
X151796562Y-137759826D01*
X151784515Y-137734809D01*
X151727179Y-137570953D01*
X151721000Y-137543881D01*
X151700390Y-137360964D01*
X151700000Y-137354017D01*
X151700000Y-134160982D01*
X151700390Y-134154035D01*
X151721000Y-133971118D01*
X151727179Y-133944046D01*
X151784515Y-133780190D01*
X151796562Y-133755173D01*
X151888919Y-133608187D01*
X151906232Y-133586478D01*
X152028978Y-133463732D01*
X152050687Y-133446419D01*
X152197673Y-133354062D01*
X152222690Y-133342015D01*
X152386546Y-133284679D01*
X152413617Y-133278500D01*
X152586116Y-133259064D01*
X152613884Y-133259064D01*
X152786382Y-133278500D01*
G37*
G36*
X124586382Y-58878500D02*
G01*
X124613453Y-58884679D01*
X124777309Y-58942015D01*
X124802326Y-58954062D01*
X124949312Y-59046419D01*
X124971021Y-59063732D01*
X125093767Y-59186478D01*
X125111080Y-59208187D01*
X125203437Y-59355173D01*
X125215484Y-59380190D01*
X125272820Y-59544046D01*
X125278999Y-59571117D01*
X125299610Y-59754034D01*
X125300000Y-59760982D01*
X125300000Y-62954017D01*
X125299610Y-62960965D01*
X125278999Y-63143882D01*
X125272820Y-63170953D01*
X125215484Y-63334809D01*
X125203437Y-63359826D01*
X125111080Y-63506812D01*
X125093767Y-63528521D01*
X124971021Y-63651267D01*
X124949312Y-63668580D01*
X124802326Y-63760937D01*
X124777309Y-63772984D01*
X124613453Y-63830320D01*
X124586382Y-63836499D01*
X124413884Y-63855935D01*
X124386116Y-63855935D01*
X124213617Y-63836499D01*
X124186546Y-63830320D01*
X124022690Y-63772984D01*
X123997673Y-63760937D01*
X123850687Y-63668580D01*
X123828978Y-63651267D01*
X123706232Y-63528521D01*
X123688919Y-63506812D01*
X123596562Y-63359826D01*
X123584515Y-63334809D01*
X123527179Y-63170953D01*
X123521000Y-63143881D01*
X123500390Y-62960964D01*
X123500000Y-62954017D01*
X123500000Y-59760982D01*
X123500390Y-59754035D01*
X123521000Y-59571118D01*
X123527179Y-59544046D01*
X123584515Y-59380190D01*
X123596562Y-59355173D01*
X123688919Y-59208187D01*
X123706232Y-59186478D01*
X123828978Y-59063732D01*
X123850687Y-59046419D01*
X123997673Y-58954062D01*
X124022690Y-58942015D01*
X124186546Y-58884679D01*
X124213617Y-58878500D01*
X124386116Y-58859064D01*
X124413884Y-58859064D01*
X124586382Y-58878500D01*
G37*
G36*
X96386382Y-133278500D02*
G01*
X96413453Y-133284679D01*
X96577309Y-133342015D01*
X96602326Y-133354062D01*
X96749312Y-133446419D01*
X96771021Y-133463732D01*
X96893767Y-133586478D01*
X96911080Y-133608187D01*
X97003437Y-133755173D01*
X97015484Y-133780190D01*
X97072820Y-133944046D01*
X97078999Y-133971117D01*
X97099610Y-134154034D01*
X97100000Y-134160982D01*
X97100000Y-137354017D01*
X97099610Y-137360965D01*
X97078999Y-137543882D01*
X97072820Y-137570953D01*
X97015484Y-137734809D01*
X97003437Y-137759826D01*
X96911080Y-137906812D01*
X96893767Y-137928521D01*
X96771021Y-138051267D01*
X96749312Y-138068580D01*
X96602326Y-138160937D01*
X96577309Y-138172984D01*
X96413453Y-138230320D01*
X96386382Y-138236499D01*
X96213884Y-138255935D01*
X96186116Y-138255935D01*
X96013617Y-138236499D01*
X95986546Y-138230320D01*
X95822690Y-138172984D01*
X95797673Y-138160937D01*
X95650687Y-138068580D01*
X95628978Y-138051267D01*
X95506232Y-137928521D01*
X95488919Y-137906812D01*
X95396562Y-137759826D01*
X95384515Y-137734809D01*
X95327179Y-137570953D01*
X95321000Y-137543881D01*
X95300390Y-137360964D01*
X95300000Y-137354017D01*
X95300000Y-134160982D01*
X95300390Y-134154035D01*
X95321000Y-133971118D01*
X95327179Y-133944046D01*
X95384515Y-133780190D01*
X95396562Y-133755173D01*
X95488919Y-133608187D01*
X95506232Y-133586478D01*
X95628978Y-133463732D01*
X95650687Y-133446419D01*
X95797673Y-133354062D01*
X95822690Y-133342015D01*
X95986546Y-133284679D01*
X96013617Y-133278500D01*
X96186116Y-133259064D01*
X96213884Y-133259064D01*
X96386382Y-133278500D01*
G37*
G36*
X138686382Y-108478500D02*
G01*
X138713453Y-108484679D01*
X138877309Y-108542015D01*
X138902326Y-108554062D01*
X139049312Y-108646419D01*
X139071021Y-108663732D01*
X139193767Y-108786478D01*
X139211080Y-108808187D01*
X139303437Y-108955173D01*
X139315484Y-108980190D01*
X139372820Y-109144046D01*
X139378999Y-109171117D01*
X139399610Y-109354034D01*
X139400000Y-109360982D01*
X139400000Y-112554017D01*
X139399610Y-112560965D01*
X139378999Y-112743882D01*
X139372820Y-112770953D01*
X139315484Y-112934809D01*
X139303437Y-112959826D01*
X139211080Y-113106812D01*
X139193767Y-113128521D01*
X139071021Y-113251267D01*
X139049312Y-113268580D01*
X138902326Y-113360937D01*
X138877309Y-113372984D01*
X138713453Y-113430320D01*
X138686382Y-113436499D01*
X138513884Y-113455935D01*
X138486116Y-113455935D01*
X138313617Y-113436499D01*
X138286546Y-113430320D01*
X138122690Y-113372984D01*
X138097673Y-113360937D01*
X137950687Y-113268580D01*
X137928978Y-113251267D01*
X137806232Y-113128521D01*
X137788919Y-113106812D01*
X137696562Y-112959826D01*
X137684515Y-112934809D01*
X137627179Y-112770953D01*
X137621000Y-112743881D01*
X137600390Y-112560964D01*
X137600000Y-112554017D01*
X137600000Y-109360982D01*
X137600390Y-109354035D01*
X137621000Y-109171118D01*
X137627179Y-109144046D01*
X137684515Y-108980190D01*
X137696562Y-108955173D01*
X137788919Y-108808187D01*
X137806232Y-108786478D01*
X137928978Y-108663732D01*
X137950687Y-108646419D01*
X138097673Y-108554062D01*
X138122690Y-108542015D01*
X138286546Y-108484679D01*
X138313617Y-108478500D01*
X138486116Y-108459064D01*
X138513884Y-108459064D01*
X138686382Y-108478500D01*
G37*
G36*
X131186382Y-58878500D02*
G01*
X131213453Y-58884679D01*
X131377309Y-58942015D01*
X131402326Y-58954062D01*
X131549312Y-59046419D01*
X131571021Y-59063732D01*
X131693767Y-59186478D01*
X131711080Y-59208187D01*
X131803437Y-59355173D01*
X131815484Y-59380190D01*
X131872820Y-59544046D01*
X131878999Y-59571117D01*
X131899610Y-59754034D01*
X131900000Y-59760982D01*
X131900000Y-62954017D01*
X131899610Y-62960965D01*
X131878999Y-63143882D01*
X131872820Y-63170953D01*
X131815484Y-63334809D01*
X131803437Y-63359826D01*
X131711080Y-63506812D01*
X131693767Y-63528521D01*
X131571021Y-63651267D01*
X131549312Y-63668580D01*
X131402326Y-63760937D01*
X131377309Y-63772984D01*
X131213453Y-63830320D01*
X131186382Y-63836499D01*
X131013884Y-63855935D01*
X130986116Y-63855935D01*
X130813617Y-63836499D01*
X130786546Y-63830320D01*
X130622690Y-63772984D01*
X130597673Y-63760937D01*
X130450687Y-63668580D01*
X130428978Y-63651267D01*
X130306232Y-63528521D01*
X130288919Y-63506812D01*
X130196562Y-63359826D01*
X130184515Y-63334809D01*
X130127179Y-63170953D01*
X130121000Y-63143881D01*
X130100390Y-62960964D01*
X130100000Y-62954017D01*
X130100000Y-59760982D01*
X130100390Y-59754035D01*
X130121000Y-59571118D01*
X130127179Y-59544046D01*
X130184515Y-59380190D01*
X130196562Y-59355173D01*
X130288919Y-59208187D01*
X130306232Y-59186478D01*
X130428978Y-59063732D01*
X130450687Y-59046419D01*
X130597673Y-58954062D01*
X130622690Y-58942015D01*
X130786546Y-58884679D01*
X130813617Y-58878500D01*
X130986116Y-58859064D01*
X131013884Y-58859064D01*
X131186382Y-58878500D01*
G37*
G36*
X96386382Y-83678500D02*
G01*
X96413453Y-83684679D01*
X96577309Y-83742015D01*
X96602326Y-83754062D01*
X96749312Y-83846419D01*
X96771021Y-83863732D01*
X96893767Y-83986478D01*
X96911080Y-84008187D01*
X97003437Y-84155173D01*
X97015484Y-84180190D01*
X97072820Y-84344046D01*
X97078999Y-84371117D01*
X97099610Y-84554034D01*
X97100000Y-84560982D01*
X97100000Y-87754017D01*
X97099610Y-87760965D01*
X97078999Y-87943882D01*
X97072820Y-87970953D01*
X97015484Y-88134809D01*
X97003437Y-88159826D01*
X96911080Y-88306812D01*
X96893767Y-88328521D01*
X96771021Y-88451267D01*
X96749312Y-88468580D01*
X96602326Y-88560937D01*
X96577309Y-88572984D01*
X96413453Y-88630320D01*
X96386382Y-88636499D01*
X96213884Y-88655935D01*
X96186116Y-88655935D01*
X96013617Y-88636499D01*
X95986546Y-88630320D01*
X95822690Y-88572984D01*
X95797673Y-88560937D01*
X95650687Y-88468580D01*
X95628978Y-88451267D01*
X95506232Y-88328521D01*
X95488919Y-88306812D01*
X95396562Y-88159826D01*
X95384515Y-88134809D01*
X95327179Y-87970953D01*
X95321000Y-87943881D01*
X95300390Y-87760964D01*
X95300000Y-87754017D01*
X95300000Y-84560982D01*
X95300390Y-84554035D01*
X95321000Y-84371118D01*
X95327179Y-84344046D01*
X95384515Y-84180190D01*
X95396562Y-84155173D01*
X95488919Y-84008187D01*
X95506232Y-83986478D01*
X95628978Y-83863732D01*
X95650687Y-83846419D01*
X95797673Y-83754062D01*
X95822690Y-83742015D01*
X95986546Y-83684679D01*
X96013617Y-83678500D01*
X96186116Y-83659064D01*
X96213884Y-83659064D01*
X96386382Y-83678500D01*
G37*
G36*
X88886382Y-58878500D02*
G01*
X88913453Y-58884679D01*
X89077309Y-58942015D01*
X89102326Y-58954062D01*
X89249312Y-59046419D01*
X89271021Y-59063732D01*
X89393767Y-59186478D01*
X89411080Y-59208187D01*
X89503437Y-59355173D01*
X89515484Y-59380190D01*
X89572820Y-59544046D01*
X89578999Y-59571117D01*
X89599610Y-59754034D01*
X89600000Y-59760982D01*
X89600000Y-62954017D01*
X89599610Y-62960965D01*
X89578999Y-63143882D01*
X89572820Y-63170953D01*
X89515484Y-63334809D01*
X89503437Y-63359826D01*
X89411080Y-63506812D01*
X89393767Y-63528521D01*
X89271021Y-63651267D01*
X89249312Y-63668580D01*
X89102326Y-63760937D01*
X89077309Y-63772984D01*
X88913453Y-63830320D01*
X88886382Y-63836499D01*
X88713884Y-63855935D01*
X88686116Y-63855935D01*
X88513617Y-63836499D01*
X88486546Y-63830320D01*
X88322690Y-63772984D01*
X88297673Y-63760937D01*
X88150687Y-63668580D01*
X88128978Y-63651267D01*
X88006232Y-63528521D01*
X87988919Y-63506812D01*
X87896562Y-63359826D01*
X87884515Y-63334809D01*
X87827179Y-63170953D01*
X87821000Y-63143881D01*
X87800390Y-62960964D01*
X87800000Y-62954017D01*
X87800000Y-59760982D01*
X87800390Y-59754035D01*
X87821000Y-59571118D01*
X87827179Y-59544046D01*
X87884515Y-59380190D01*
X87896562Y-59355173D01*
X87988919Y-59208187D01*
X88006232Y-59186478D01*
X88128978Y-59063732D01*
X88150687Y-59046419D01*
X88297673Y-58954062D01*
X88322690Y-58942015D01*
X88486546Y-58884679D01*
X88513617Y-58878500D01*
X88686116Y-58859064D01*
X88713884Y-58859064D01*
X88886382Y-58878500D01*
G37*
G36*
X145286382Y-58878500D02*
G01*
X145313453Y-58884679D01*
X145477309Y-58942015D01*
X145502326Y-58954062D01*
X145649312Y-59046419D01*
X145671021Y-59063732D01*
X145793767Y-59186478D01*
X145811080Y-59208187D01*
X145903437Y-59355173D01*
X145915484Y-59380190D01*
X145972820Y-59544046D01*
X145978999Y-59571117D01*
X145999610Y-59754034D01*
X146000000Y-59760982D01*
X146000000Y-62954017D01*
X145999610Y-62960965D01*
X145978999Y-63143882D01*
X145972820Y-63170953D01*
X145915484Y-63334809D01*
X145903437Y-63359826D01*
X145811080Y-63506812D01*
X145793767Y-63528521D01*
X145671021Y-63651267D01*
X145649312Y-63668580D01*
X145502326Y-63760937D01*
X145477309Y-63772984D01*
X145313453Y-63830320D01*
X145286382Y-63836499D01*
X145113884Y-63855935D01*
X145086116Y-63855935D01*
X144913617Y-63836499D01*
X144886546Y-63830320D01*
X144722690Y-63772984D01*
X144697673Y-63760937D01*
X144550687Y-63668580D01*
X144528978Y-63651267D01*
X144406232Y-63528521D01*
X144388919Y-63506812D01*
X144296562Y-63359826D01*
X144284515Y-63334809D01*
X144227179Y-63170953D01*
X144221000Y-63143881D01*
X144200390Y-62960964D01*
X144200000Y-62954017D01*
X144200000Y-59760982D01*
X144200390Y-59754035D01*
X144221000Y-59571118D01*
X144227179Y-59544046D01*
X144284515Y-59380190D01*
X144296562Y-59355173D01*
X144388919Y-59208187D01*
X144406232Y-59186478D01*
X144528978Y-59063732D01*
X144550687Y-59046419D01*
X144697673Y-58954062D01*
X144722690Y-58942015D01*
X144886546Y-58884679D01*
X144913617Y-58878500D01*
X145086116Y-58859064D01*
X145113884Y-58859064D01*
X145286382Y-58878500D01*
G37*
G36*
X145286382Y-108478500D02*
G01*
X145313453Y-108484679D01*
X145477309Y-108542015D01*
X145502326Y-108554062D01*
X145649312Y-108646419D01*
X145671021Y-108663732D01*
X145793767Y-108786478D01*
X145811080Y-108808187D01*
X145903437Y-108955173D01*
X145915484Y-108980190D01*
X145972820Y-109144046D01*
X145978999Y-109171117D01*
X145999610Y-109354034D01*
X146000000Y-109360982D01*
X146000000Y-112554017D01*
X145999610Y-112560965D01*
X145978999Y-112743882D01*
X145972820Y-112770953D01*
X145915484Y-112934809D01*
X145903437Y-112959826D01*
X145811080Y-113106812D01*
X145793767Y-113128521D01*
X145671021Y-113251267D01*
X145649312Y-113268580D01*
X145502326Y-113360937D01*
X145477309Y-113372984D01*
X145313453Y-113430320D01*
X145286382Y-113436499D01*
X145113884Y-113455935D01*
X145086116Y-113455935D01*
X144913617Y-113436499D01*
X144886546Y-113430320D01*
X144722690Y-113372984D01*
X144697673Y-113360937D01*
X144550687Y-113268580D01*
X144528978Y-113251267D01*
X144406232Y-113128521D01*
X144388919Y-113106812D01*
X144296562Y-112959826D01*
X144284515Y-112934809D01*
X144227179Y-112770953D01*
X144221000Y-112743881D01*
X144200390Y-112560964D01*
X144200000Y-112554017D01*
X144200000Y-109360982D01*
X144200390Y-109354035D01*
X144221000Y-109171118D01*
X144227179Y-109144046D01*
X144284515Y-108980190D01*
X144296562Y-108955173D01*
X144388919Y-108808187D01*
X144406232Y-108786478D01*
X144528978Y-108663732D01*
X144550687Y-108646419D01*
X144697673Y-108554062D01*
X144722690Y-108542015D01*
X144886546Y-108484679D01*
X144913617Y-108478500D01*
X145086116Y-108459064D01*
X145113884Y-108459064D01*
X145286382Y-108478500D01*
G37*
G36*
X110486382Y-133278500D02*
G01*
X110513453Y-133284679D01*
X110677309Y-133342015D01*
X110702326Y-133354062D01*
X110849312Y-133446419D01*
X110871021Y-133463732D01*
X110993767Y-133586478D01*
X111011080Y-133608187D01*
X111103437Y-133755173D01*
X111115484Y-133780190D01*
X111172820Y-133944046D01*
X111178999Y-133971117D01*
X111199610Y-134154034D01*
X111200000Y-134160982D01*
X111200000Y-137354017D01*
X111199610Y-137360965D01*
X111178999Y-137543882D01*
X111172820Y-137570953D01*
X111115484Y-137734809D01*
X111103437Y-137759826D01*
X111011080Y-137906812D01*
X110993767Y-137928521D01*
X110871021Y-138051267D01*
X110849312Y-138068580D01*
X110702326Y-138160937D01*
X110677309Y-138172984D01*
X110513453Y-138230320D01*
X110486382Y-138236499D01*
X110313884Y-138255935D01*
X110286116Y-138255935D01*
X110113617Y-138236499D01*
X110086546Y-138230320D01*
X109922690Y-138172984D01*
X109897673Y-138160937D01*
X109750687Y-138068580D01*
X109728978Y-138051267D01*
X109606232Y-137928521D01*
X109588919Y-137906812D01*
X109496562Y-137759826D01*
X109484515Y-137734809D01*
X109427179Y-137570953D01*
X109421000Y-137543881D01*
X109400390Y-137360964D01*
X109400000Y-137354017D01*
X109400000Y-134160982D01*
X109400390Y-134154035D01*
X109421000Y-133971118D01*
X109427179Y-133944046D01*
X109484515Y-133780190D01*
X109496562Y-133755173D01*
X109588919Y-133608187D01*
X109606232Y-133586478D01*
X109728978Y-133463732D01*
X109750687Y-133446419D01*
X109897673Y-133354062D01*
X109922690Y-133342015D01*
X110086546Y-133284679D01*
X110113617Y-133278500D01*
X110286116Y-133259064D01*
X110313884Y-133259064D01*
X110486382Y-133278500D01*
G37*
G36*
X82286382Y-58878500D02*
G01*
X82313453Y-58884679D01*
X82477309Y-58942015D01*
X82502326Y-58954062D01*
X82649312Y-59046419D01*
X82671021Y-59063732D01*
X82793767Y-59186478D01*
X82811080Y-59208187D01*
X82903437Y-59355173D01*
X82915484Y-59380190D01*
X82972820Y-59544046D01*
X82978999Y-59571117D01*
X82999610Y-59754034D01*
X83000000Y-59760982D01*
X83000000Y-62954017D01*
X82999610Y-62960965D01*
X82978999Y-63143882D01*
X82972820Y-63170953D01*
X82915484Y-63334809D01*
X82903437Y-63359826D01*
X82811080Y-63506812D01*
X82793767Y-63528521D01*
X82671021Y-63651267D01*
X82649312Y-63668580D01*
X82502326Y-63760937D01*
X82477309Y-63772984D01*
X82313453Y-63830320D01*
X82286382Y-63836499D01*
X82113884Y-63855935D01*
X82086116Y-63855935D01*
X81913617Y-63836499D01*
X81886546Y-63830320D01*
X81722690Y-63772984D01*
X81697673Y-63760937D01*
X81550687Y-63668580D01*
X81528978Y-63651267D01*
X81406232Y-63528521D01*
X81388919Y-63506812D01*
X81296562Y-63359826D01*
X81284515Y-63334809D01*
X81227179Y-63170953D01*
X81221000Y-63143881D01*
X81200390Y-62960964D01*
X81200000Y-62954017D01*
X81200000Y-59760982D01*
X81200390Y-59754035D01*
X81221000Y-59571118D01*
X81227179Y-59544046D01*
X81284515Y-59380190D01*
X81296562Y-59355173D01*
X81388919Y-59208187D01*
X81406232Y-59186478D01*
X81528978Y-59063732D01*
X81550687Y-59046419D01*
X81697673Y-58954062D01*
X81722690Y-58942015D01*
X81886546Y-58884679D01*
X81913617Y-58878500D01*
X82086116Y-58859064D01*
X82113884Y-58859064D01*
X82286382Y-58878500D01*
G37*
%LPD*%
M02*
