%TF.GenerationSoftware,KiCad,Pcbnew,7.0.8*%
%TF.CreationDate,2024-02-11T12:05:53+00:00*%
%TF.ProjectId,QMK_controller_test,514d4b5f-636f-46e7-9472-6f6c6c65725f,rev?*%
%TF.SameCoordinates,Original*%
%TF.FileFunction,Profile,NP*%
%FSLAX46Y46*%
G04 Gerber Fmt 4.6, Leading zero omitted, Abs format (unit mm)*
G04 Created by KiCad (PCBNEW 7.0.8) date 2024-02-11 12:05:53*
%MOMM*%
%LPD*%
G01*
G04 APERTURE LIST*
%TA.AperFunction,Profile*%
%ADD10C,0.100000*%
%TD*%
G04 APERTURE END LIST*
D10*
X107500000Y-106457500D02*
X111550000Y-106450000D01*
X87350000Y-81650000D02*
G75*
G03*
X87350000Y-83650000I0J-1000000D01*
G01*
X151700000Y-83657500D02*
X151700000Y-88457500D01*
X149800000Y-123200000D02*
G75*
G03*
X147800000Y-123200000I-1000000J0D01*
G01*
X89600000Y-58857500D02*
X81200000Y-58857500D01*
X79300000Y-123200000D02*
X79300000Y-131257500D01*
X139750000Y-83650000D02*
X137600000Y-83657500D01*
X146000000Y-108457500D02*
X143750000Y-108450000D01*
X143750000Y-131250000D02*
G75*
G03*
X143750000Y-133250000I0J-1000000D01*
G01*
X147800000Y-69600000D02*
X147800000Y-65457500D01*
X133700000Y-156057500D02*
X133700000Y-148000000D01*
X147800000Y-69600000D02*
G75*
G03*
X149800000Y-69600000I1000000J0D01*
G01*
X77300000Y-73600000D02*
X77300000Y-94400000D01*
X121600000Y-73600000D02*
X121600000Y-81657500D01*
X161900000Y-156057500D02*
X161900000Y-148000000D01*
X83350000Y-133250000D02*
X81200000Y-133257500D01*
X151700000Y-113257500D02*
X149843340Y-115400840D01*
X81200000Y-133257500D02*
X81200000Y-138057500D01*
X146000000Y-58857500D02*
X137600000Y-58857500D01*
X147800000Y-144000000D02*
X147800000Y-139857500D01*
X147800000Y-131257500D02*
X147800000Y-123200000D01*
X95300000Y-88457500D02*
X93443340Y-90600840D01*
X109400000Y-58857500D02*
X109400000Y-63657500D01*
X89600000Y-133257500D02*
X87350000Y-133250000D01*
X151700000Y-108457500D02*
X151700000Y-113257500D01*
X81200000Y-58857500D02*
X81200000Y-63657500D01*
X143750000Y-106450000D02*
G75*
G03*
X143750000Y-108450000I0J-1000000D01*
G01*
X115550000Y-81650000D02*
G75*
G03*
X115550000Y-83650000I0J-1000000D01*
G01*
X117800000Y-108457500D02*
X115550000Y-108450000D01*
X149800000Y-81657500D02*
X153850000Y-81650000D01*
X107543340Y-65800840D02*
X107500000Y-69600000D01*
X87350000Y-131250000D02*
G75*
G03*
X87350000Y-133250000I0J-1000000D01*
G01*
X157850000Y-131250000D02*
G75*
G03*
X157850000Y-133250000I0J-1000000D01*
G01*
X91400000Y-144000000D02*
G75*
G03*
X93400000Y-144000000I1000000J0D01*
G01*
X135743340Y-90600840D02*
X135700000Y-94400000D01*
X137600000Y-63657500D02*
X135743340Y-65800840D01*
X157850000Y-131250000D02*
X161900000Y-131257500D01*
X77300000Y-119200000D02*
G75*
G03*
X79300000Y-119200000I1000000J0D01*
G01*
X81200000Y-83657500D02*
X81200000Y-88457500D01*
X87350000Y-131250000D02*
X91400000Y-131257500D01*
X143750000Y-106450000D02*
X147800000Y-106457500D01*
X77300000Y-157250000D02*
X70600000Y-157250000D01*
X147800000Y-119200000D02*
G75*
G03*
X149800000Y-119200000I1000000J0D01*
G01*
X131900000Y-113257500D02*
X131900000Y-108457500D01*
X105500000Y-94400000D02*
G75*
G03*
X107500000Y-94400000I1000000J0D01*
G01*
X161900000Y-94400000D02*
X161900000Y-90257500D01*
X149843340Y-115400840D02*
X149800000Y-119200000D01*
X93443340Y-65800840D02*
X93400000Y-69600000D01*
X161900000Y-81657500D02*
X161900000Y-73600000D01*
X163900000Y-119200000D02*
X163900000Y-98400000D01*
X129650000Y-131250000D02*
X133700000Y-131257500D01*
X151700000Y-133257500D02*
X151700000Y-138057500D01*
X149800000Y-73600000D02*
G75*
G03*
X147800000Y-73600000I-1000000J0D01*
G01*
X105500000Y-81657500D02*
X105500000Y-73600000D01*
X105500000Y-156057500D02*
X105500000Y-148000000D01*
X119600000Y-69600000D02*
G75*
G03*
X121600000Y-69600000I1000000J0D01*
G01*
X139750000Y-133250000D02*
G75*
G03*
X139750000Y-131250000I0J1000000D01*
G01*
X107500000Y-148000000D02*
G75*
G03*
X105500000Y-148000000I-1000000J0D01*
G01*
X133700000Y-90257500D02*
X131900000Y-88457500D01*
X147800000Y-115057500D02*
X146000000Y-113257500D01*
X119600000Y-156057500D02*
X119600000Y-148000000D01*
X83350000Y-108450000D02*
X81200000Y-108457500D01*
X107500000Y-131257500D02*
X111550000Y-131250000D01*
X87350000Y-106450000D02*
X91400000Y-106457500D01*
X133700000Y-119200000D02*
X133700000Y-115057500D01*
X109400000Y-133257500D02*
X109400000Y-138057500D01*
X91400000Y-144000000D02*
X91400000Y-139857500D01*
X123500000Y-133257500D02*
X123500000Y-138057500D01*
X105500000Y-139857500D02*
X103700000Y-138057500D01*
X121600000Y-98400000D02*
G75*
G03*
X119600000Y-98400000I-1000000J0D01*
G01*
X157850000Y-106450000D02*
G75*
G03*
X157850000Y-108450000I0J-1000000D01*
G01*
X103700000Y-83657500D02*
X101450000Y-83650000D01*
X163900000Y-73600000D02*
X163900000Y-94400000D01*
X161900000Y-115057500D02*
X160100000Y-113257500D01*
X119600000Y-115057500D02*
X117800000Y-113257500D01*
X137600000Y-113257500D02*
X135743340Y-115400840D01*
X161900000Y-139857500D02*
X160100000Y-138057500D01*
X149800000Y-148000000D02*
G75*
G03*
X147800000Y-148000000I-1000000J0D01*
G01*
X160100000Y-88457500D02*
X160100000Y-83657500D01*
X91400000Y-119200000D02*
X91400000Y-115057500D01*
X133700000Y-139857500D02*
X131900000Y-138057500D01*
X111550000Y-83650000D02*
X109400000Y-83657500D01*
X97450000Y-108450000D02*
X95300000Y-108457500D01*
X119600000Y-144000000D02*
G75*
G03*
X121600000Y-144000000I1000000J0D01*
G01*
X111550000Y-108450000D02*
X109400000Y-108457500D01*
X89600000Y-138057500D02*
X89600000Y-133257500D01*
X147800000Y-119200000D02*
X147800000Y-115057500D01*
X101450000Y-131250000D02*
G75*
G03*
X101450000Y-133250000I0J-1000000D01*
G01*
X79300000Y-73600000D02*
G75*
G03*
X77300000Y-73600000I-1000000J0D01*
G01*
X123500000Y-113257500D02*
X121643340Y-115400840D01*
X115550000Y-81650000D02*
X119600000Y-81657500D01*
X103700000Y-63657500D02*
X103700000Y-58857500D01*
X105500000Y-69600000D02*
G75*
G03*
X107500000Y-69600000I1000000J0D01*
G01*
X93400000Y-98400000D02*
G75*
G03*
X91400000Y-98400000I-1000000J0D01*
G01*
X135700000Y-131257500D02*
X139750000Y-131250000D01*
X125650000Y-133250000D02*
G75*
G03*
X125650000Y-131250000I0J1000000D01*
G01*
X153850000Y-83650000D02*
G75*
G03*
X153850000Y-81650000I0J1000000D01*
G01*
X143750000Y-81650000D02*
G75*
G03*
X143750000Y-83650000I0J-1000000D01*
G01*
X93400000Y-81657500D02*
X97450000Y-81650000D01*
X105500000Y-144000000D02*
X105500000Y-139857500D01*
X97450000Y-83650000D02*
G75*
G03*
X97450000Y-81650000I0J1000000D01*
G01*
X160100000Y-83657500D02*
X157850000Y-83650000D01*
X91400000Y-94400000D02*
G75*
G03*
X93400000Y-94400000I1000000J0D01*
G01*
X79300000Y-123200000D02*
G75*
G03*
X77300000Y-123200000I-1000000J0D01*
G01*
X133700000Y-115057500D02*
X131900000Y-113257500D01*
X153850000Y-133250000D02*
G75*
G03*
X153850000Y-131250000I0J1000000D01*
G01*
X125650000Y-83650000D02*
X123500000Y-83657500D01*
X129650000Y-106450000D02*
X133700000Y-106457500D01*
X147800000Y-94400000D02*
X147800000Y-90257500D01*
X95300000Y-138057500D02*
X93443340Y-140200840D01*
X107500000Y-73600000D02*
G75*
G03*
X105500000Y-73600000I-1000000J0D01*
G01*
X157850000Y-106450000D02*
X161900000Y-106457500D01*
X135743340Y-115400840D02*
X135700000Y-119200000D01*
X163900000Y-148000000D02*
X163900000Y-157250000D01*
X131900000Y-133257500D02*
X129650000Y-133250000D01*
X121600000Y-123200000D02*
G75*
G03*
X119600000Y-123200000I-1000000J0D01*
G01*
X107500000Y-73600000D02*
X107500000Y-81657500D01*
X149800000Y-98400000D02*
X149800000Y-106457500D01*
X160100000Y-108457500D02*
X157850000Y-108450000D01*
X160100000Y-113257500D02*
X160100000Y-108457500D01*
X109400000Y-88457500D02*
X107543340Y-90600840D01*
X133700000Y-65457500D02*
X131900000Y-63657500D01*
X137600000Y-88457500D02*
X135743340Y-90600840D01*
X135700000Y-73600000D02*
G75*
G03*
X133700000Y-73600000I-1000000J0D01*
G01*
X117800000Y-138057500D02*
X117800000Y-133257500D01*
X107500000Y-98400000D02*
G75*
G03*
X105500000Y-98400000I-1000000J0D01*
G01*
X137600000Y-133257500D02*
X137600000Y-138057500D01*
X135700000Y-148000000D02*
X135700000Y-156057500D01*
X139750000Y-133250000D02*
X137600000Y-133257500D01*
X117800000Y-133257500D02*
X115550000Y-133250000D01*
X161900000Y-65457500D02*
X160100000Y-63657500D01*
X157850000Y-81650000D02*
G75*
G03*
X157850000Y-83650000I0J-1000000D01*
G01*
X133700000Y-144000000D02*
G75*
G03*
X135700000Y-144000000I1000000J0D01*
G01*
X149800000Y-123200000D02*
X149800000Y-131257500D01*
X107500000Y-98400000D02*
X107500000Y-106457500D01*
X129650000Y-81650000D02*
X133700000Y-81657500D01*
X91400000Y-119200000D02*
G75*
G03*
X93400000Y-119200000I1000000J0D01*
G01*
X79300000Y-73600000D02*
X79300000Y-81657500D01*
X93400000Y-73600000D02*
X93400000Y-81657500D01*
X163900000Y-144000000D02*
X163900000Y-123200000D01*
X89600000Y-108457500D02*
X87350000Y-108450000D01*
X95300000Y-133257500D02*
X95300000Y-138057500D01*
X149800000Y-73600000D02*
X149800000Y-81657500D01*
X121600000Y-148000000D02*
G75*
G03*
X119600000Y-148000000I-1000000J0D01*
G01*
X91400000Y-106457500D02*
X91400000Y-98400000D01*
X107543340Y-115400840D02*
X107500000Y-119200000D01*
X119600000Y-65457500D02*
X117800000Y-63657500D01*
X146000000Y-88457500D02*
X146000000Y-83657500D01*
X161900000Y-106457500D02*
X161900000Y-98400000D01*
X95300000Y-63657500D02*
X93443340Y-65800840D01*
X125650000Y-83650000D02*
G75*
G03*
X125650000Y-81650000I0J1000000D01*
G01*
X139750000Y-83650000D02*
G75*
G03*
X139750000Y-81650000I0J1000000D01*
G01*
X91400000Y-131257500D02*
X91400000Y-123200000D01*
X111550000Y-108450000D02*
G75*
G03*
X111550000Y-106450000I0J1000000D01*
G01*
X121600000Y-156057500D02*
X133700000Y-156057500D01*
X135700000Y-148000000D02*
G75*
G03*
X133700000Y-148000000I-1000000J0D01*
G01*
X70600000Y-157250000D02*
X70600000Y-57250000D01*
X81200000Y-88457500D02*
X79343340Y-90600840D01*
X119600000Y-139857500D02*
X117800000Y-138057500D01*
X135700000Y-123200000D02*
X135700000Y-131257500D01*
X123500000Y-138057500D02*
X121643340Y-140200840D01*
X125650000Y-108450000D02*
G75*
G03*
X125650000Y-106450000I0J1000000D01*
G01*
X93443340Y-90600840D02*
X93400000Y-94400000D01*
X161900000Y-90257500D02*
X160100000Y-88457500D01*
X81200000Y-108457500D02*
X81200000Y-113257500D01*
X135700000Y-73600000D02*
X135700000Y-81657500D01*
X147800000Y-90257500D02*
X146000000Y-88457500D01*
X133700000Y-106457500D02*
X133700000Y-98400000D01*
X89600000Y-63657500D02*
X89600000Y-58857500D01*
X111550000Y-83650000D02*
G75*
G03*
X111550000Y-81650000I0J1000000D01*
G01*
X133700000Y-94400000D02*
G75*
G03*
X135700000Y-94400000I1000000J0D01*
G01*
X91400000Y-94400000D02*
X91400000Y-90257500D01*
X101450000Y-106450000D02*
G75*
G03*
X101450000Y-108450000I0J-1000000D01*
G01*
X135700000Y-81657500D02*
X139750000Y-81650000D01*
X147800000Y-94400000D02*
G75*
G03*
X149800000Y-94400000I1000000J0D01*
G01*
X103700000Y-108457500D02*
X101450000Y-108450000D01*
X105500000Y-131257500D02*
X105500000Y-123200000D01*
X133700000Y-69600000D02*
G75*
G03*
X135700000Y-69600000I1000000J0D01*
G01*
X107500000Y-123200000D02*
G75*
G03*
X105500000Y-123200000I-1000000J0D01*
G01*
X93400000Y-148000000D02*
G75*
G03*
X91400000Y-148000000I-1000000J0D01*
G01*
X93400000Y-123200000D02*
G75*
G03*
X91400000Y-123200000I-1000000J0D01*
G01*
X109400000Y-63657500D02*
X107543340Y-65800840D01*
X133700000Y-94400000D02*
X133700000Y-90257500D01*
X123500000Y-63657500D02*
X121643340Y-65800840D01*
X91400000Y-90257500D02*
X89600000Y-88457500D01*
X146000000Y-63657500D02*
X146000000Y-58857500D01*
X79300000Y-98400000D02*
X79300000Y-106457500D01*
X161900000Y-119200000D02*
X161900000Y-115057500D01*
X125650000Y-133250000D02*
X123500000Y-133257500D01*
X121600000Y-123200000D02*
X121600000Y-131257500D01*
X107500000Y-123200000D02*
X107500000Y-131257500D01*
X119600000Y-69600000D02*
X119600000Y-65457500D01*
X131900000Y-108457500D02*
X129650000Y-108450000D01*
X133700000Y-119200000D02*
G75*
G03*
X135700000Y-119200000I1000000J0D01*
G01*
X147800000Y-144000000D02*
G75*
G03*
X149800000Y-144000000I1000000J0D01*
G01*
X149843340Y-65800840D02*
X149800000Y-69600000D01*
X79343340Y-65800840D02*
X79300000Y-69600000D01*
X105500000Y-144000000D02*
G75*
G03*
X107500000Y-144000000I1000000J0D01*
G01*
X119600000Y-119200000D02*
X119600000Y-115057500D01*
X89600000Y-83657500D02*
X87350000Y-83650000D01*
X79343340Y-115400840D02*
X79300000Y-119200000D01*
X97450000Y-133250000D02*
X95300000Y-133257500D01*
X143750000Y-131250000D02*
X147800000Y-131257500D01*
X147800000Y-81657500D02*
X147800000Y-73600000D01*
X161900000Y-69600000D02*
G75*
G03*
X163900000Y-69600000I1000000J0D01*
G01*
X160100000Y-63657500D02*
X160100000Y-58857500D01*
X79300000Y-148000000D02*
G75*
G03*
X77300000Y-148000000I-1000000J0D01*
G01*
X161900000Y-144000000D02*
X161900000Y-139857500D01*
X147800000Y-106457500D02*
X147800000Y-98400000D01*
X121643340Y-65800840D02*
X121600000Y-69600000D01*
X115550000Y-106450000D02*
G75*
G03*
X115550000Y-108450000I0J-1000000D01*
G01*
X137600000Y-108457500D02*
X137600000Y-113257500D01*
X79343340Y-140200840D02*
X79300000Y-144000000D01*
X93400000Y-156057500D02*
X105500000Y-156057500D01*
X170600000Y-57250000D02*
X170600000Y-157250000D01*
X131900000Y-58857500D02*
X123500000Y-58857500D01*
X105500000Y-65457500D02*
X103700000Y-63657500D01*
X93400000Y-131257500D02*
X97450000Y-131250000D01*
X146000000Y-83657500D02*
X143750000Y-83650000D01*
X125650000Y-108450000D02*
X123500000Y-108457500D01*
X107543340Y-140200840D02*
X107500000Y-144000000D01*
X95300000Y-108457500D02*
X95300000Y-113257500D01*
X129650000Y-131250000D02*
G75*
G03*
X129650000Y-133250000I0J-1000000D01*
G01*
X163900000Y-98400000D02*
G75*
G03*
X161900000Y-98400000I-1000000J0D01*
G01*
X103700000Y-113257500D02*
X103700000Y-108457500D01*
X163900000Y-148000000D02*
G75*
G03*
X161900000Y-148000000I-1000000J0D01*
G01*
X131900000Y-138057500D02*
X131900000Y-133257500D01*
X101450000Y-81650000D02*
G75*
G03*
X101450000Y-83650000I0J-1000000D01*
G01*
X151700000Y-88457500D02*
X149843340Y-90600840D01*
X161900000Y-144000000D02*
G75*
G03*
X163900000Y-144000000I1000000J0D01*
G01*
X119600000Y-106457500D02*
X119600000Y-98400000D01*
X119600000Y-131257500D02*
X119600000Y-123200000D01*
X161900000Y-131257500D02*
X161900000Y-123200000D01*
X81200000Y-138057500D02*
X79343340Y-140200840D01*
X101450000Y-131250000D02*
X105500000Y-131257500D01*
X91400000Y-69600000D02*
X91400000Y-65457500D01*
X97450000Y-133250000D02*
G75*
G03*
X97450000Y-131250000I0J1000000D01*
G01*
X139750000Y-108450000D02*
G75*
G03*
X139750000Y-106450000I0J1000000D01*
G01*
X93443340Y-115400840D02*
X93400000Y-119200000D01*
X105500000Y-119200000D02*
G75*
G03*
X107500000Y-119200000I1000000J0D01*
G01*
X129650000Y-81650000D02*
G75*
G03*
X129650000Y-83650000I0J-1000000D01*
G01*
X105500000Y-94400000D02*
X105500000Y-90257500D01*
X161900000Y-94400000D02*
G75*
G03*
X163900000Y-94400000I1000000J0D01*
G01*
X107500000Y-156057500D02*
X119600000Y-156057500D01*
X105500000Y-119200000D02*
X105500000Y-115057500D01*
X161900000Y-69600000D02*
X161900000Y-65457500D01*
X77300000Y-119200000D02*
X77300000Y-98400000D01*
X139750000Y-108450000D02*
X137600000Y-108457500D01*
X133700000Y-69600000D02*
X133700000Y-65457500D01*
X121600000Y-73600000D02*
G75*
G03*
X119600000Y-73600000I-1000000J0D01*
G01*
X93400000Y-98400000D02*
X93400000Y-106457500D01*
X121643340Y-90600840D02*
X121600000Y-94400000D01*
X115550000Y-106450000D02*
X119600000Y-106457500D01*
X163900000Y-157250000D02*
X170600000Y-157250000D01*
X137600000Y-138057500D02*
X135743340Y-140200840D01*
X77300000Y-57250000D02*
X70600000Y-57250000D01*
X95300000Y-83657500D02*
X95300000Y-88457500D01*
X135700000Y-106457500D02*
X139750000Y-106450000D01*
X105500000Y-106457500D02*
X105500000Y-98400000D01*
X93443340Y-140200840D02*
X93400000Y-144000000D01*
X79343340Y-90600840D02*
X79300000Y-94400000D01*
X77300000Y-69600000D02*
X77300000Y-57250000D01*
X79300000Y-98400000D02*
G75*
G03*
X77300000Y-98400000I-1000000J0D01*
G01*
X149800000Y-156057500D02*
X161900000Y-156057500D01*
X147800000Y-65457500D02*
X146000000Y-63657500D01*
X93400000Y-106457500D02*
X97450000Y-106450000D01*
X107543340Y-90600840D02*
X107500000Y-94400000D01*
X151700000Y-138057500D02*
X149843340Y-140200840D01*
X163900000Y-69600000D02*
X163900000Y-57250000D01*
X79300000Y-148000000D02*
X79300000Y-156057500D01*
X131900000Y-83657500D02*
X129650000Y-83650000D01*
X79300000Y-106457500D02*
X83350000Y-106450000D01*
X111550000Y-133250000D02*
X109400000Y-133257500D01*
X147800000Y-156057500D02*
X147800000Y-148000000D01*
X149800000Y-98400000D02*
G75*
G03*
X147800000Y-98400000I-1000000J0D01*
G01*
X123500000Y-58857500D02*
X123500000Y-63657500D01*
X83350000Y-83650000D02*
X81200000Y-83657500D01*
X135700000Y-98400000D02*
X135700000Y-106457500D01*
X95300000Y-58857500D02*
X95300000Y-63657500D01*
X101450000Y-106450000D02*
X105500000Y-106457500D01*
X103700000Y-88457500D02*
X103700000Y-83657500D01*
X87350000Y-106450000D02*
G75*
G03*
X87350000Y-108450000I0J-1000000D01*
G01*
X91400000Y-81657500D02*
X91400000Y-73600000D01*
X121600000Y-131257500D02*
X125650000Y-131250000D01*
X146000000Y-138057500D02*
X146000000Y-133257500D01*
X105500000Y-115057500D02*
X103700000Y-113257500D01*
X153850000Y-83650000D02*
X151700000Y-83657500D01*
X119600000Y-94400000D02*
G75*
G03*
X121600000Y-94400000I1000000J0D01*
G01*
X137600000Y-58857500D02*
X137600000Y-63657500D01*
X91400000Y-139857500D02*
X89600000Y-138057500D01*
X123500000Y-88457500D02*
X121643340Y-90600840D01*
X95300000Y-113257500D02*
X93443340Y-115400840D01*
X133700000Y-131257500D02*
X133700000Y-123200000D01*
X101450000Y-81650000D02*
X105500000Y-81657500D01*
X115550000Y-131250000D02*
X119600000Y-131257500D01*
X79300000Y-81657500D02*
X83350000Y-81650000D01*
X77300000Y-148000000D02*
X77300000Y-157250000D01*
X109400000Y-108457500D02*
X109400000Y-113257500D01*
X77300000Y-144000000D02*
X77300000Y-123200000D01*
X161900000Y-119200000D02*
G75*
G03*
X163900000Y-119200000I1000000J0D01*
G01*
X103700000Y-58857500D02*
X95300000Y-58857500D01*
X137600000Y-83657500D02*
X137600000Y-88457500D01*
X103700000Y-133257500D02*
X101450000Y-133250000D01*
X91400000Y-69600000D02*
G75*
G03*
X93400000Y-69600000I1000000J0D01*
G01*
X135700000Y-98400000D02*
G75*
G03*
X133700000Y-98400000I-1000000J0D01*
G01*
X89600000Y-113257500D02*
X89600000Y-108457500D01*
X97450000Y-108450000D02*
G75*
G03*
X97450000Y-106450000I0J1000000D01*
G01*
X153850000Y-133250000D02*
X151700000Y-133257500D01*
X109400000Y-138057500D02*
X107543340Y-140200840D01*
X91400000Y-156057500D02*
X91400000Y-148000000D01*
X93400000Y-123200000D02*
X93400000Y-131257500D01*
X111550000Y-133250000D02*
G75*
G03*
X111550000Y-131250000I0J1000000D01*
G01*
X160100000Y-133257500D02*
X157850000Y-133250000D01*
X123500000Y-108457500D02*
X123500000Y-113257500D01*
X135743340Y-65800840D02*
X135700000Y-69600000D01*
X93400000Y-148000000D02*
X93400000Y-156057500D01*
X133700000Y-144000000D02*
X133700000Y-139857500D01*
X117800000Y-113257500D02*
X117800000Y-108457500D01*
X163900000Y-73600000D02*
G75*
G03*
X161900000Y-73600000I-1000000J0D01*
G01*
X121643340Y-115400840D02*
X121600000Y-119200000D01*
X121643340Y-140200840D02*
X121600000Y-144000000D01*
X89600000Y-88457500D02*
X89600000Y-83657500D01*
X91400000Y-115057500D02*
X89600000Y-113257500D01*
X83350000Y-108450000D02*
G75*
G03*
X83350000Y-106450000I0J1000000D01*
G01*
X147800000Y-139857500D02*
X146000000Y-138057500D01*
X151700000Y-58857500D02*
X151700000Y-63657500D01*
X149800000Y-131257500D02*
X153850000Y-131250000D01*
X157850000Y-81650000D02*
X161900000Y-81657500D01*
X119600000Y-144000000D02*
X119600000Y-139857500D01*
X105500000Y-90257500D02*
X103700000Y-88457500D01*
X146000000Y-113257500D02*
X146000000Y-108457500D01*
X121600000Y-81657500D02*
X125650000Y-81650000D01*
X163900000Y-123200000D02*
G75*
G03*
X161900000Y-123200000I-1000000J0D01*
G01*
X153850000Y-108450000D02*
G75*
G03*
X153850000Y-106450000I0J1000000D01*
G01*
X103700000Y-138057500D02*
X103700000Y-133257500D01*
X83350000Y-83650000D02*
G75*
G03*
X83350000Y-81650000I0J1000000D01*
G01*
X163900000Y-57250000D02*
X170600000Y-57250000D01*
X107500000Y-148000000D02*
X107500000Y-156057500D01*
X151700000Y-63657500D02*
X149843340Y-65800840D01*
X117800000Y-63657500D02*
X117800000Y-58857500D01*
X87350000Y-81650000D02*
X91400000Y-81657500D01*
X160100000Y-58857500D02*
X151700000Y-58857500D01*
X97450000Y-83650000D02*
X95300000Y-83657500D01*
X119600000Y-119200000D02*
G75*
G03*
X121600000Y-119200000I1000000J0D01*
G01*
X81200000Y-113257500D02*
X79343340Y-115400840D01*
X109400000Y-83657500D02*
X109400000Y-88457500D01*
X93400000Y-73600000D02*
G75*
G03*
X91400000Y-73600000I-1000000J0D01*
G01*
X121600000Y-98400000D02*
X121600000Y-106457500D01*
X129650000Y-106450000D02*
G75*
G03*
X129650000Y-108450000I0J-1000000D01*
G01*
X81200000Y-63657500D02*
X79343340Y-65800840D01*
X131900000Y-88457500D02*
X131900000Y-83657500D01*
X115550000Y-131250000D02*
G75*
G03*
X115550000Y-133250000I0J-1000000D01*
G01*
X135743340Y-140200840D02*
X135700000Y-144000000D01*
X133700000Y-81657500D02*
X133700000Y-73600000D01*
X117800000Y-83657500D02*
X115550000Y-83650000D01*
X119600000Y-90257500D02*
X117800000Y-88457500D01*
X153850000Y-108450000D02*
X151700000Y-108457500D01*
X79300000Y-156057500D02*
X91400000Y-156057500D01*
X79300000Y-131257500D02*
X83350000Y-131250000D01*
X121600000Y-148000000D02*
X121600000Y-156057500D01*
X135700000Y-156057500D02*
X147800000Y-156057500D01*
X77300000Y-94400000D02*
G75*
G03*
X79300000Y-94400000I1000000J0D01*
G01*
X123500000Y-83657500D02*
X123500000Y-88457500D01*
X121600000Y-106457500D02*
X125650000Y-106450000D01*
X107500000Y-81657500D02*
X111550000Y-81650000D01*
X77300000Y-69600000D02*
G75*
G03*
X79300000Y-69600000I1000000J0D01*
G01*
X117800000Y-58857500D02*
X109400000Y-58857500D01*
X146000000Y-133257500D02*
X143750000Y-133250000D01*
X149800000Y-106457500D02*
X153850000Y-106450000D01*
X77300000Y-144000000D02*
G75*
G03*
X79300000Y-144000000I1000000J0D01*
G01*
X135700000Y-123200000D02*
G75*
G03*
X133700000Y-123200000I-1000000J0D01*
G01*
X83350000Y-133250000D02*
G75*
G03*
X83350000Y-131250000I0J1000000D01*
G01*
X143750000Y-81650000D02*
X147800000Y-81657500D01*
X149800000Y-148000000D02*
X149800000Y-156057500D01*
X149843340Y-140200840D02*
X149800000Y-144000000D01*
X91400000Y-65457500D02*
X89600000Y-63657500D01*
X131900000Y-63657500D02*
X131900000Y-58857500D01*
X119600000Y-81657500D02*
X119600000Y-73600000D01*
X105500000Y-69600000D02*
X105500000Y-65457500D01*
X109400000Y-113257500D02*
X107543340Y-115400840D01*
X160100000Y-138057500D02*
X160100000Y-133257500D01*
X117800000Y-88457500D02*
X117800000Y-83657500D01*
X119600000Y-94400000D02*
X119600000Y-90257500D01*
X149843340Y-90600840D02*
X149800000Y-94400000D01*
M02*
